<mxfile host="app.diagrams.net" agent="Mozilla/5.0 (Windows NT 10.0; Win64; x64) AppleWebKit/537.36 (KHTML, like Gecko) Chrome/140.0.0.0 Safari/537.36 Edg/140.0.0.0" version="28.2.5">
  <diagram name="Page-1" id="13e1069c-82ec-6db2-03f1-153e76fe0fe0">
    <mxGraphModel dx="3613" dy="3336" grid="0" gridSize="10" guides="1" tooltips="1" connect="1" arrows="1" fold="1" page="0" pageScale="1" pageWidth="4681" pageHeight="3300" background="#FFFFFF" math="0" shadow="0">
      <root>
        <mxCell id="0" />
        <mxCell id="1" parent="0" />
        <mxCell id="V9DL_0UD8Dr6rji1wSYd-5" value="&lt;div style=&quot;color: rgb(218, 218, 218); font-family: Consolas, &amp;quot;Courier New&amp;quot;, monospace; font-size: 16px; line-height: 22px; white-space-collapse: preserve;&quot;&gt;&lt;div style=&quot;&quot;&gt;&lt;br&gt;&lt;/div&gt;&lt;/div&gt;" style="text;html=1;align=left;verticalAlign=middle;resizable=0;points=[];autosize=1;strokeColor=none;fillColor=none;" vertex="1" parent="1">
          <mxGeometry x="-1720" y="-373" width="18" height="34" as="geometry" />
        </mxCell>
        <mxCell id="V9DL_0UD8Dr6rji1wSYd-7" value="&lt;span style=&quot;font-family: Consolas, &amp;quot;Courier New&amp;quot;, monospace; font-size: 16px; white-space: pre; color: rgb(190, 183, 255);&quot;&gt;&lt;span style=&quot;color: rgb(0, 0, 0);&quot;&gt;camxhal3entry.cpp &lt;/span&gt;CAMX_VISIBILITY_PUBLIC&lt;/span&gt;&lt;span style=&quot;color: rgb(218, 218, 218); font-family: Consolas, &amp;quot;Courier New&amp;quot;, monospace; font-size: 16px; white-space: pre;&quot;&gt; &lt;/span&gt;&lt;span style=&quot;font-family: Consolas, &amp;quot;Courier New&amp;quot;, monospace; font-size: 16px; white-space: pre; color: rgb(78, 201, 176);&quot;&gt;camera_module_t&lt;/span&gt;&lt;span style=&quot;color: rgb(218, 218, 218); font-family: Consolas, &amp;quot;Courier New&amp;quot;, monospace; font-size: 16px; white-space: pre;&quot;&gt; &lt;/span&gt;&lt;span style=&quot;font-family: Consolas, &amp;quot;Courier New&amp;quot;, monospace; font-size: 16px; white-space: pre; color: rgb(200, 200, 200);&quot;&gt;HAL_MODULE_INFO_SYM&lt;/span&gt;" style="swimlane;fontStyle=0;childLayout=stackLayout;horizontal=1;startSize=30;horizontalStack=0;resizeParent=1;resizeParentMax=0;resizeLast=0;collapsible=1;marginBottom=0;whiteSpace=wrap;html=1;align=left;" vertex="1" parent="1">
          <mxGeometry x="-626" y="-1107" width="753" height="527" as="geometry">
            <mxRectangle x="-685" y="-579" width="545" height="31" as="alternateBounds" />
          </mxGeometry>
        </mxCell>
        <mxCell id="V9DL_0UD8Dr6rji1wSYd-8" value="&lt;div style=&quot;font-family: Consolas, &amp;quot;Courier New&amp;quot;, monospace; font-size: 16px; white-space: pre;&quot;&gt;&lt;div style=&quot;line-height: 22px;&quot;&gt;&lt;div style=&quot;&quot;&gt;&lt;font style=&quot;color: rgb(0, 0, 0);&quot;&gt;CAMX_VISIBILITY_PUBLIC &lt;span&gt;camera_module_t&lt;/span&gt; HAL_MODULE_INFO_SYM &lt;span&gt;=&lt;/span&gt;&lt;/font&gt;&lt;/div&gt;&lt;div style=&quot;&quot;&gt;&lt;span&gt;&lt;font style=&quot;color: rgb(0, 0, 0);&quot;&gt;{&lt;/font&gt;&lt;/span&gt;&lt;/div&gt;&lt;div style=&quot;&quot;&gt;&lt;span&gt;&lt;font style=&quot;color: rgb(0, 0, 0);&quot;&gt;&amp;nbsp; &amp;nbsp; .common &lt;span style=&quot;color: rgb(180, 180, 180);&quot;&gt;=&lt;/span&gt;&lt;/font&gt;&lt;/span&gt;&lt;/div&gt;&lt;div style=&quot;&quot;&gt;&lt;span&gt;&lt;font style=&quot;color: rgb(0, 0, 0);&quot;&gt;&amp;nbsp; &amp;nbsp; &lt;span style=&quot;color: rgb(180, 180, 180);&quot;&gt;{&lt;/span&gt;&lt;/font&gt;&lt;/span&gt;&lt;/div&gt;&lt;div style=&quot;&quot;&gt;&lt;span&gt;&lt;font style=&quot;color: rgb(0, 0, 0);&quot;&gt;&amp;nbsp; &amp;nbsp; &amp;nbsp; &amp;nbsp; .tag &amp;nbsp; &amp;nbsp; &amp;nbsp; &amp;nbsp; &amp;nbsp; &amp;nbsp; &amp;nbsp; &amp;nbsp;&lt;span style=&quot;color: rgb(180, 180, 180);&quot;&gt;=&lt;/span&gt; HARDWARE_MODULE_TAG&lt;span style=&quot;color: rgb(180, 180, 180);&quot;&gt;,&lt;/span&gt;&lt;/font&gt;&lt;/span&gt;&lt;/div&gt;&lt;div style=&quot;&quot;&gt;&lt;span&gt;&lt;font style=&quot;color: rgb(0, 0, 0);&quot;&gt;&amp;nbsp; &amp;nbsp; &amp;nbsp; &amp;nbsp; .module_api_version &lt;span style=&quot;color: rgb(180, 180, 180);&quot;&gt;=&lt;/span&gt; CAMERA_MODULE_API_VERSION_CURRENT&lt;span style=&quot;color: rgb(180, 180, 180);&quot;&gt;,&lt;/span&gt;&lt;/font&gt;&lt;/span&gt;&lt;/div&gt;&lt;div style=&quot;&quot;&gt;&lt;span&gt;&lt;font style=&quot;color: rgb(0, 0, 0);&quot;&gt;&amp;nbsp; &amp;nbsp; &amp;nbsp; &amp;nbsp; .hal_api_version &amp;nbsp; &amp;nbsp;&lt;span style=&quot;color: rgb(180, 180, 180);&quot;&gt;=&lt;/span&gt; HARDWARE_HAL_API_VERSION&lt;span style=&quot;color: rgb(180, 180, 180);&quot;&gt;,&lt;/span&gt;&lt;/font&gt;&lt;/span&gt;&lt;/div&gt;&lt;div style=&quot;&quot;&gt;&lt;span&gt;&lt;font style=&quot;color: rgb(0, 0, 0);&quot;&gt;&amp;nbsp; &amp;nbsp; &amp;nbsp; &amp;nbsp; .id &amp;nbsp; &amp;nbsp; &amp;nbsp; &amp;nbsp; &amp;nbsp; &amp;nbsp; &amp;nbsp; &amp;nbsp; &lt;span style=&quot;color: rgb(180, 180, 180);&quot;&gt;=&lt;/span&gt; CAMERA_HARDWARE_MODULE_ID&lt;span style=&quot;color: rgb(180, 180, 180);&quot;&gt;,&lt;/span&gt;&lt;/font&gt;&lt;/span&gt;&lt;/div&gt;&lt;div style=&quot;&quot;&gt;&lt;span&gt;&lt;font style=&quot;color: rgb(0, 0, 0);&quot;&gt;&amp;nbsp; &amp;nbsp; &amp;nbsp; &amp;nbsp; .name &amp;nbsp; &amp;nbsp; &amp;nbsp; &amp;nbsp; &amp;nbsp; &amp;nbsp; &amp;nbsp; &lt;span style=&quot;color: rgb(180, 180, 180);&quot;&gt;=&lt;/span&gt; &lt;span style=&quot;color: rgb(232, 201, 187);&quot;&gt;&quot;&lt;/span&gt;&lt;span style=&quot;color: rgb(206, 145, 120);&quot;&gt;QTI Camera HAL&lt;/span&gt;&lt;span style=&quot;color: rgb(232, 201, 187);&quot;&gt;&quot;&lt;/span&gt;&lt;span style=&quot;color: rgb(180, 180, 180);&quot;&gt;,&lt;/span&gt;&lt;/font&gt;&lt;/span&gt;&lt;/div&gt;&lt;div style=&quot;&quot;&gt;&lt;span&gt;&lt;font style=&quot;color: rgb(0, 0, 0);&quot;&gt;&amp;nbsp; &amp;nbsp; &amp;nbsp; &amp;nbsp; .author &amp;nbsp; &amp;nbsp; &amp;nbsp; &amp;nbsp; &amp;nbsp; &amp;nbsp; &lt;span style=&quot;color: rgb(180, 180, 180);&quot;&gt;=&lt;/span&gt; &lt;span style=&quot;color: rgb(232, 201, 187);&quot;&gt;&quot;&lt;/span&gt;&lt;span style=&quot;color: rgb(206, 145, 120);&quot;&gt;Qualcomm Technologies, Inc.&lt;/span&gt;&lt;span style=&quot;color: rgb(232, 201, 187);&quot;&gt;&quot;&lt;/span&gt;&lt;span style=&quot;color: rgb(180, 180, 180);&quot;&gt;,&lt;/span&gt;&lt;/font&gt;&lt;/span&gt;&lt;/div&gt;&lt;div style=&quot;&quot;&gt;&lt;span&gt;&lt;font style=&quot;color: rgb(0, 0, 0);&quot;&gt;&amp;nbsp; &amp;nbsp; &amp;nbsp; &amp;nbsp; .methods &amp;nbsp; &amp;nbsp; &amp;nbsp; &amp;nbsp; &amp;nbsp; &amp;nbsp;&lt;span style=&quot;color: rgb(180, 180, 180);&quot;&gt;=&lt;/span&gt; &lt;span style=&quot;color: rgb(180, 180, 180);&quot;&gt;&amp;amp;&lt;/span&gt;&lt;span style=&quot;color: rgb(200, 200, 200);&quot;&gt;CamX&lt;/span&gt;&lt;span style=&quot;color: rgb(180, 180, 180);&quot;&gt;::&lt;/span&gt;g_hwModuleMethods&lt;/font&gt;&lt;/span&gt;&lt;/div&gt;&lt;div style=&quot;&quot;&gt;&lt;span&gt;&lt;font style=&quot;color: rgb(0, 0, 0);&quot;&gt;&amp;nbsp; &amp;nbsp; &lt;span style=&quot;color: rgb(180, 180, 180);&quot;&gt;},&lt;/span&gt;&lt;/font&gt;&lt;/span&gt;&lt;/div&gt;&lt;div style=&quot;&quot;&gt;&lt;span&gt;&lt;font style=&quot;color: rgb(0, 0, 0);&quot;&gt;&amp;nbsp; &amp;nbsp; .get_number_of_cameras &amp;nbsp; &amp;nbsp; &amp;nbsp; &amp;nbsp; &amp;nbsp; &lt;span style=&quot;color: rgb(180, 180, 180);&quot;&gt;=&lt;/span&gt; &lt;span style=&quot;color: rgb(200, 200, 200);&quot;&gt;CamX&lt;/span&gt;&lt;span style=&quot;color: rgb(180, 180, 180);&quot;&gt;::&lt;/span&gt;get_number_of_cameras&lt;span style=&quot;color: rgb(180, 180, 180);&quot;&gt;,&lt;/span&gt;&lt;/font&gt;&lt;/span&gt;&lt;/div&gt;&lt;div style=&quot;&quot;&gt;&lt;span&gt;&lt;font style=&quot;color: rgb(0, 0, 0);&quot;&gt;&amp;nbsp; &amp;nbsp; .get_camera_info &amp;nbsp; &amp;nbsp; &amp;nbsp; &amp;nbsp; &amp;nbsp; &amp;nbsp; &amp;nbsp; &amp;nbsp; &lt;span style=&quot;color: rgb(180, 180, 180);&quot;&gt;=&lt;/span&gt; &lt;span style=&quot;color: rgb(200, 200, 200);&quot;&gt;CamX&lt;/span&gt;&lt;span style=&quot;color: rgb(180, 180, 180);&quot;&gt;::&lt;/span&gt;get_camera_info&lt;span style=&quot;color: rgb(180, 180, 180);&quot;&gt;,&lt;/span&gt;&lt;/font&gt;&lt;/span&gt;&lt;/div&gt;&lt;div style=&quot;&quot;&gt;&lt;span&gt;&lt;font style=&quot;color: rgb(0, 0, 0);&quot;&gt;&amp;nbsp; &amp;nbsp; .set_callbacks &amp;nbsp; &amp;nbsp; &amp;nbsp; &amp;nbsp; &amp;nbsp; &amp;nbsp; &amp;nbsp; &amp;nbsp; &amp;nbsp; &lt;span style=&quot;color: rgb(180, 180, 180);&quot;&gt;=&lt;/span&gt; &lt;span style=&quot;color: rgb(200, 200, 200);&quot;&gt;CamX&lt;/span&gt;&lt;span style=&quot;color: rgb(180, 180, 180);&quot;&gt;::&lt;/span&gt;set_callbacks&lt;span style=&quot;color: rgb(180, 180, 180);&quot;&gt;,&lt;/span&gt;&lt;/font&gt;&lt;/span&gt;&lt;/div&gt;&lt;div style=&quot;&quot;&gt;&lt;span&gt;&lt;font style=&quot;color: rgb(0, 0, 0);&quot;&gt;&amp;nbsp; &amp;nbsp; .get_vendor_tag_ops &amp;nbsp; &amp;nbsp; &amp;nbsp; &amp;nbsp; &amp;nbsp; &amp;nbsp; &amp;nbsp;&lt;span style=&quot;color: rgb(180, 180, 180);&quot;&gt;=&lt;/span&gt; &lt;span style=&quot;color: rgb(200, 200, 200);&quot;&gt;CamX&lt;/span&gt;&lt;span style=&quot;color: rgb(180, 180, 180);&quot;&gt;::&lt;/span&gt;get_vendor_tag_ops&lt;span style=&quot;color: rgb(180, 180, 180);&quot;&gt;,&lt;/span&gt;&lt;/font&gt;&lt;/span&gt;&lt;/div&gt;&lt;div style=&quot;&quot;&gt;&lt;span&gt;&lt;font style=&quot;color: rgb(0, 0, 0);&quot;&gt;&amp;nbsp; &amp;nbsp; .open_legacy &amp;nbsp; &amp;nbsp; &amp;nbsp; &amp;nbsp; &amp;nbsp; &amp;nbsp; &amp;nbsp; &amp;nbsp; &amp;nbsp; &amp;nbsp; &lt;span style=&quot;color: rgb(180, 180, 180);&quot;&gt;=&lt;/span&gt; &lt;span style=&quot;color: rgb(86, 156, 214);&quot;&gt;NULL&lt;/span&gt;&lt;span style=&quot;color: rgb(180, 180, 180);&quot;&gt;,&lt;/span&gt;&lt;/font&gt;&lt;/span&gt;&lt;/div&gt;&lt;div style=&quot;&quot;&gt;&lt;span&gt;&lt;font style=&quot;color: rgb(0, 0, 0);&quot;&gt;&amp;nbsp; &amp;nbsp; .set_torch_mode &amp;nbsp; &amp;nbsp; &amp;nbsp; &amp;nbsp; &amp;nbsp; &amp;nbsp; &amp;nbsp; &amp;nbsp; &amp;nbsp;&lt;span style=&quot;color: rgb(180, 180, 180);&quot;&gt;=&lt;/span&gt; &lt;span style=&quot;color: rgb(200, 200, 200);&quot;&gt;CamX&lt;/span&gt;&lt;span style=&quot;color: rgb(180, 180, 180);&quot;&gt;::&lt;/span&gt;set_torch_mode&lt;span style=&quot;color: rgb(180, 180, 180);&quot;&gt;,&lt;/span&gt;&lt;/font&gt;&lt;/span&gt;&lt;/div&gt;&lt;div style=&quot;&quot;&gt;&lt;span&gt;&lt;font style=&quot;color: rgb(0, 0, 0);&quot;&gt;&amp;nbsp; &amp;nbsp; .init &amp;nbsp; &amp;nbsp; &amp;nbsp; &amp;nbsp; &amp;nbsp; &amp;nbsp; &amp;nbsp; &amp;nbsp; &amp;nbsp; &amp;nbsp; &amp;nbsp; &amp;nbsp; &amp;nbsp; &amp;nbsp;&lt;span style=&quot;color: rgb(180, 180, 180);&quot;&gt;=&lt;/span&gt; &lt;span style=&quot;color: rgb(200, 200, 200);&quot;&gt;CamX&lt;/span&gt;&lt;span style=&quot;color: rgb(180, 180, 180);&quot;&gt;::&lt;/span&gt;init&lt;span style=&quot;color: rgb(180, 180, 180);&quot;&gt;,&lt;/span&gt;&lt;/font&gt;&lt;/span&gt;&lt;/div&gt;&lt;div style=&quot;&quot;&gt;&lt;span&gt;&lt;font style=&quot;color: rgb(0, 0, 0);&quot;&gt;&amp;nbsp; &amp;nbsp; .get_physical_camera_info &amp;nbsp; &amp;nbsp; &amp;nbsp; &amp;nbsp;&lt;span style=&quot;color: rgb(180, 180, 180);&quot;&gt;=&lt;/span&gt; &lt;span style=&quot;color: rgb(200, 200, 200);&quot;&gt;CamX&lt;/span&gt;&lt;span style=&quot;color: rgb(180, 180, 180);&quot;&gt;::&lt;/span&gt;get_physical_camera_info&lt;span style=&quot;color: rgb(180, 180, 180);&quot;&gt;,&lt;/span&gt;&lt;/font&gt;&lt;/span&gt;&lt;/div&gt;&lt;div style=&quot;&quot;&gt;&lt;span&gt;&lt;font style=&quot;color: rgb(0, 0, 0);&quot;&gt;&amp;nbsp; &amp;nbsp; .is_stream_combination_supported &lt;span style=&quot;color: rgb(180, 180, 180);&quot;&gt;=&lt;/span&gt; &lt;span style=&quot;color: rgb(200, 200, 200);&quot;&gt;CamX&lt;/span&gt;&lt;span style=&quot;color: rgb(180, 180, 180);&quot;&gt;::&lt;/span&gt;is_stream_combination_supported&lt;span style=&quot;color: rgb(180, 180, 180);&quot;&gt;,&lt;/span&gt;&lt;/font&gt;&lt;/span&gt;&lt;/div&gt;&lt;div style=&quot;&quot;&gt;&lt;span style=&quot;color: rgb(180, 180, 180);&quot;&gt;&lt;font style=&quot;color: rgb(0, 0, 0);&quot;&gt;};&lt;/font&gt;&lt;/span&gt;&lt;/div&gt;&lt;/div&gt;&lt;/div&gt;" style="text;strokeColor=none;fillColor=none;align=left;verticalAlign=middle;spacingLeft=4;spacingRight=4;overflow=hidden;points=[[0,0.5],[1,0.5]];portConstraint=eastwest;rotatable=0;whiteSpace=wrap;html=1;" vertex="1" parent="V9DL_0UD8Dr6rji1wSYd-7">
          <mxGeometry y="30" width="753" height="497" as="geometry" />
        </mxCell>
        <mxCell id="V9DL_0UD8Dr6rji1wSYd-11" value="&lt;div style=&quot;color: rgb(218, 218, 218); font-family: Consolas, &amp;quot;Courier New&amp;quot;, monospace; font-size: 16px; line-height: 22px; white-space: pre;&quot;&gt;&lt;span&gt;&lt;span style=&quot;color: rgb(78, 201, 176);&quot;&gt;Camera3DeviceClient&lt;/span&gt;&lt;span style=&quot;color: rgb(180, 180, 180);&quot;&gt;::&lt;/span&gt;&lt;span style=&quot;color: rgb(220, 220, 170);&quot;&gt;Initialize&lt;/span&gt;&lt;span style=&quot;color: rgb(180, 180, 180);&quot;&gt;()&lt;/span&gt;&lt;/span&gt;&lt;/div&gt;" style="swimlane;fontStyle=0;childLayout=stackLayout;horizontal=1;startSize=30;horizontalStack=0;resizeParent=1;resizeParentMax=0;resizeLast=0;collapsible=1;marginBottom=0;whiteSpace=wrap;html=1;align=left;" vertex="1" parent="1">
          <mxGeometry x="-1487" y="-624" width="691" height="116" as="geometry">
            <mxRectangle x="-1713" y="-620" width="325" height="34" as="alternateBounds" />
          </mxGeometry>
        </mxCell>
        <mxCell id="V9DL_0UD8Dr6rji1wSYd-12" value="&lt;div style=&quot;font-family: Consolas, &amp;quot;Courier New&amp;quot;, monospace; font-size: 16px; line-height: 22px; white-space: pre;&quot;&gt;&lt;div style=&quot;&quot;&gt;&lt;font&gt;&lt;font style=&quot;color: rgb(51, 153, 255);&quot;&gt;&amp;nbsp; &lt;/font&gt;&lt;span style=&quot;color: light-dark(rgb(0, 0, 0), rgb(237, 237, 237));&quot;&gt;res&lt;/span&gt;&lt;font style=&quot;color: rgb(51, 153, 255);&quot;&gt; &lt;/font&gt;&lt;span style=&quot;color: light-dark(rgb(0, 0, 0), rgb(237, 237, 237));&quot;&gt;=&lt;/span&gt;&lt;font style=&quot;color: rgb(51, 153, 255);&quot;&gt; LoadHWModule&lt;/font&gt;&lt;span style=&quot;color: light-dark(rgb(0, 0, 0), rgb(237, 237, 237));&quot;&gt;(&lt;/span&gt;&lt;font style=&quot;color: rgb(51, 153, 255);&quot;&gt;CAMERA_HARDWARE_MODULE_ID&lt;/font&gt;&lt;span style=&quot;color: light-dark(rgb(0, 0, 0), rgb(237, 237, 237));&quot;&gt;,&lt;/span&gt;&lt;/font&gt;&lt;/div&gt;&lt;div style=&quot;&quot;&gt;&lt;span&gt;&lt;font style=&quot;color: rgb(0, 0, 0);&quot;&gt;&amp;nbsp; &amp;nbsp; &amp;nbsp; &amp;nbsp; &amp;nbsp; &amp;nbsp; &amp;nbsp; &amp;nbsp; &amp;nbsp; &amp;nbsp; &amp;nbsp;&lt;span style=&quot;color: rgb(180, 180, 180);&quot;&gt;(&lt;/span&gt;&lt;span style=&quot;color: rgb(86, 156, 214);&quot;&gt;const&lt;/span&gt; &lt;span style=&quot;color: rgb(78, 201, 176);&quot;&gt;hw_module_t&lt;/span&gt; &lt;span style=&quot;color: rgb(180, 180, 180);&quot;&gt;**)&amp;amp;&lt;/span&gt;camera_module_&lt;span style=&quot;color: rgb(180, 180, 180);&quot;&gt;);&lt;/span&gt;&lt;/font&gt;&lt;/span&gt;&lt;/div&gt;&lt;/div&gt;" style="text;strokeColor=none;fillColor=none;align=left;verticalAlign=middle;spacingLeft=4;spacingRight=4;overflow=hidden;points=[[0,0.5],[1,0.5]];portConstraint=eastwest;rotatable=0;whiteSpace=wrap;html=1;" vertex="1" parent="V9DL_0UD8Dr6rji1wSYd-11">
          <mxGeometry y="30" width="691" height="56" as="geometry" />
        </mxCell>
        <mxCell id="V9DL_0UD8Dr6rji1wSYd-17" value="&lt;div style=&quot;font-family: Consolas, &amp;quot;Courier New&amp;quot;, monospace; font-size: 16px; line-height: 22px; white-space: pre;&quot;&gt;&lt;font style=&quot;color: rgb(0, 127, 255);&quot;&gt; &lt;/font&gt;&lt;font style=&quot;color: rgb(0, 0, 0);&quot;&gt; number_of_cameras_&lt;/font&gt;&lt;font style=&quot;color: rgb(0, 127, 255);&quot;&gt; = camera_module_-&amp;gt;get_number_of_cameras();&lt;/font&gt;&lt;/div&gt;" style="text;strokeColor=none;fillColor=none;align=left;verticalAlign=middle;spacingLeft=4;spacingRight=4;overflow=hidden;points=[[0,0.5],[1,0.5]];portConstraint=eastwest;rotatable=0;whiteSpace=wrap;html=1;" vertex="1" parent="V9DL_0UD8Dr6rji1wSYd-11">
          <mxGeometry y="86" width="691" height="30" as="geometry" />
        </mxCell>
        <mxCell id="V9DL_0UD8Dr6rji1wSYd-21" value="&lt;div style=&quot;color: #dadada;background-color: #1e1e1e;font-family: Consolas, &#39;Courier New&#39;, monospace;font-weight: normal;font-size: 16px;line-height: 22px;white-space: pre;&quot;&gt;&lt;div&gt;&lt;span style=&quot;color: #4ec9b0;&quot;&gt;Camera3DeviceClient&lt;/span&gt;&lt;/div&gt;&lt;/div&gt;" style="text;whiteSpace=wrap;html=1;" vertex="1" parent="1">
          <mxGeometry x="-1523.9952631578947" y="-713.001052631579" width="195" height="44" as="geometry" />
        </mxCell>
        <mxCell id="V9DL_0UD8Dr6rji1wSYd-22" value="&lt;div style=&quot;color: rgb(218, 218, 218); font-family: Consolas, &amp;quot;Courier New&amp;quot;, monospace; font-size: 16px; line-height: 22px; white-space: pre;&quot;&gt;&lt;div style=&quot;&quot;&gt;&lt;span&gt;&amp;nbsp; &lt;span style=&quot;color: rgb(78, 201, 176);&quot;&gt;camera_module_t&lt;/span&gt; &lt;span style=&quot;color: rgb(180, 180, 180);&quot;&gt;*&lt;/span&gt;camera_module_&lt;span style=&quot;color: rgb(180, 180, 180);&quot;&gt;;&lt;/span&gt;&lt;/span&gt;&lt;/div&gt;&lt;div style=&quot;&quot;&gt;&lt;span&gt;&amp;nbsp; &lt;span style=&quot;color: rgb(78, 201, 176);&quot;&gt;camera3_device_t&lt;/span&gt; &lt;span style=&quot;color: rgb(180, 180, 180);&quot;&gt;*&lt;/span&gt;device_&lt;span style=&quot;color: rgb(180, 180, 180);&quot;&gt;;&lt;/span&gt;&lt;/span&gt;&lt;/div&gt;&lt;/div&gt;" style="text;html=1;align=left;verticalAlign=middle;whiteSpace=wrap;rounded=0;" vertex="1" parent="1">
          <mxGeometry x="-1509" y="-684" width="299" height="45" as="geometry" />
        </mxCell>
        <mxCell id="V9DL_0UD8Dr6rji1wSYd-26" style="edgeStyle=orthogonalEdgeStyle;rounded=0;orthogonalLoop=1;jettySize=auto;html=1;entryX=0.001;entryY=0.024;entryDx=0;entryDy=0;entryPerimeter=0;" edge="1" parent="1" source="V9DL_0UD8Dr6rji1wSYd-12" target="V9DL_0UD8Dr6rji1wSYd-7">
          <mxGeometry relative="1" as="geometry" />
        </mxCell>
        <mxCell id="V9DL_0UD8Dr6rji1wSYd-29" value="&lt;span&gt;&lt;span&gt;&lt;font face=&quot;Consolas, Courier New, monospace&quot;&gt;&lt;span style=&quot;font-size: 16px; white-space: pre;&quot;&gt;&lt;font style=&quot;color: rgb(0, 0, 0);&quot;&gt;camxhal3entry.cpp  &lt;/font&gt;&lt;/span&gt;&lt;/font&gt;&lt;font style=&quot;color: rgb(0, 127, 255);&quot; face=&quot;Consolas, Courier New, monospace&quot;&gt;&lt;span style=&quot;font-size: 16px; white-space: pre;&quot;&gt;int&lt;/span&gt;&lt;/font&gt;&lt;/span&gt;&lt;span style=&quot;color: rgb(218, 218, 218); font-family: Consolas, &amp;quot;Courier New&amp;quot;, monospace; font-size: 16px; white-space: pre;&quot;&gt; &lt;/span&gt;&lt;span style=&quot;font-family: Consolas, &amp;quot;Courier New&amp;quot;, monospace; font-size: 16px; white-space: pre; color: rgb(220, 220, 170);&quot;&gt;get_number_of_cameras&lt;/span&gt;&lt;span style=&quot;font-family: Consolas, &amp;quot;Courier New&amp;quot;, monospace; font-size: 16px; white-space: pre; color: rgb(180, 180, 180);&quot;&gt;(&lt;/span&gt;&lt;span style=&quot;font-family: Consolas, &amp;quot;Courier New&amp;quot;, monospace; font-size: 16px; white-space: pre; color: rgb(86, 156, 214);&quot;&gt;void&lt;/span&gt;&lt;span style=&quot;font-family: Consolas, &amp;quot;Courier New&amp;quot;, monospace; font-size: 16px; white-space: pre; color: rgb(180, 180, 180);&quot;&gt;)&lt;/span&gt;&lt;/span&gt;" style="swimlane;fontStyle=0;childLayout=stackLayout;horizontal=1;startSize=30;horizontalStack=0;resizeParent=1;resizeParentMax=0;resizeLast=0;collapsible=1;marginBottom=0;whiteSpace=wrap;html=1;align=left;" vertex="1" parent="1">
          <mxGeometry x="-632" y="-542" width="816" height="115" as="geometry">
            <mxRectangle x="254" y="-280" width="475" height="31" as="alternateBounds" />
          </mxGeometry>
        </mxCell>
        <mxCell id="V9DL_0UD8Dr6rji1wSYd-30" value="&lt;div style=&quot;font-family: Consolas, &amp;quot;Courier New&amp;quot;, monospace; font-size: 16px; line-height: 22px; white-space: pre;&quot;&gt;&lt;div style=&quot;color: light-dark(rgb(218, 218, 218), rgb(50, 50, 50));&quot;&gt;&lt;div style=&quot;line-height: 22px;&quot;&gt;&lt;span style=&quot;background-color: light-dark(#ffffff, var(--ge-dark-color, #121212)); color: light-dark(rgb(218, 218, 218), rgb(50, 50, 50));&quot;&gt;&amp;nbsp; &amp;nbsp; &lt;/span&gt;&lt;span style=&quot;color: rgb(78, 201, 176);&quot;&gt;JumpTableHAL3&lt;/span&gt;&lt;span style=&quot;color: rgb(180, 180, 180);&quot;&gt;*&lt;/span&gt;&lt;span style=&quot;background-color: light-dark(#ffffff, var(--ge-dark-color, #121212)); color: light-dark(rgb(218, 218, 218), rgb(50, 50, 50));&quot;&gt; &lt;/span&gt;&lt;span style=&quot;color: rgb(156, 220, 254);&quot;&gt;pHAL3&lt;/span&gt;&lt;span style=&quot;background-color: light-dark(#ffffff, var(--ge-dark-color, #121212)); color: light-dark(rgb(218, 218, 218), rgb(50, 50, 50));&quot;&gt; &lt;/span&gt;&lt;span style=&quot;color: rgb(180, 180, 180);&quot;&gt;=&lt;/span&gt;&lt;span style=&quot;background-color: light-dark(#ffffff, var(--ge-dark-color, #121212)); color: light-dark(rgb(218, 218, 218), rgb(50, 50, 50));&quot;&gt; &lt;/span&gt;&lt;span style=&quot;color: rgb(86, 156, 214);&quot;&gt;static_cast&lt;/span&gt;&lt;span style=&quot;color: rgb(180, 180, 180);&quot;&gt;&amp;lt;&lt;/span&gt;&lt;span style=&quot;color: rgb(78, 201, 176);&quot;&gt;JumpTableHAL3&lt;/span&gt;&lt;span style=&quot;color: rgb(180, 180, 180);&quot;&gt;*&amp;gt;(&lt;/span&gt;&lt;span style=&quot;color: rgb(200, 200, 200);&quot;&gt;g_dispatchHAL3&lt;/span&gt;&lt;span style=&quot;color: rgb(180, 180, 180);&quot;&gt;.&lt;/span&gt;&lt;span style=&quot;color: rgb(220, 220, 170);&quot;&gt;GetJumpTable&lt;/span&gt;&lt;span style=&quot;color: rgb(180, 180, 180);&quot;&gt;());&lt;/span&gt;&lt;span style=&quot;color: light-dark(rgb(51, 153, 255), rgb(43, 130, 218)); background-color: light-dark(#ffffff, var(--ge-dark-color, #121212));&quot;&gt;&amp;nbsp;&lt;/span&gt;&lt;/div&gt;&lt;/div&gt;&lt;/div&gt;" style="text;strokeColor=none;fillColor=none;align=left;verticalAlign=middle;spacingLeft=4;spacingRight=4;overflow=hidden;points=[[0,0.5],[1,0.5]];portConstraint=eastwest;rotatable=0;whiteSpace=wrap;html=1;" vertex="1" parent="V9DL_0UD8Dr6rji1wSYd-29">
          <mxGeometry y="30" width="816" height="49" as="geometry" />
        </mxCell>
        <mxCell id="V9DL_0UD8Dr6rji1wSYd-38" value="&lt;span style=&quot;font-family: Consolas, &amp;quot;Courier New&amp;quot;, monospace; font-size: 16px; white-space: pre; color: rgb(216, 160, 223);&quot;&gt;&lt;font color=&quot;#3399ff&quot;&gt;    &lt;/font&gt;&lt;/span&gt;&lt;span style=&quot;font-family: Consolas, &amp;quot;Courier New&amp;quot;, monospace; font-size: 16px; white-space: pre; color: rgb(216, 160, 223);&quot;&gt;return&lt;/span&gt;&lt;font style=&quot;font-family: Consolas, &amp;quot;Courier New&amp;quot;, monospace; font-size: 16px; white-space: pre; color: rgb(51, 153, 255);&quot;&gt; &lt;/font&gt;&lt;span style=&quot;font-family: Consolas, &amp;quot;Courier New&amp;quot;, monospace; font-size: 16px; white-space: pre; color: rgb(156, 220, 254);&quot;&gt;pHAL3&lt;/span&gt;&lt;span style=&quot;font-family: Consolas, &amp;quot;Courier New&amp;quot;, monospace; font-size: 16px; white-space: pre; color: rgb(180, 180, 180);&quot;&gt;-&amp;gt;&lt;/span&gt;&lt;font style=&quot;font-family: Consolas, &amp;quot;Courier New&amp;quot;, monospace; font-size: 16px; white-space: pre; color: rgb(51, 153, 255);&quot;&gt;get_number_of_cameras&lt;span style=&quot;color: rgb(180, 180, 180);&quot;&gt;();&lt;/span&gt;&lt;/font&gt;" style="text;strokeColor=none;fillColor=none;align=left;verticalAlign=middle;spacingLeft=4;spacingRight=4;overflow=hidden;points=[[0,0.5],[1,0.5]];portConstraint=eastwest;rotatable=0;whiteSpace=wrap;html=1;" vertex="1" parent="V9DL_0UD8Dr6rji1wSYd-29">
          <mxGeometry y="79" width="816" height="36" as="geometry" />
        </mxCell>
        <mxCell id="V9DL_0UD8Dr6rji1wSYd-33" value="&lt;div style=&quot;font-family: Consolas, &amp;quot;Courier New&amp;quot;, monospace; font-size: 16px; line-height: 22px; white-space: pre;&quot;&gt;&lt;font style=&quot;color: rgb(0, 0, 0);&quot;&gt;camxhal3.cpp &lt;/font&gt;&lt;font style=&quot;color: rgb(0, 127, 255);&quot;&gt;JumpTableHAL3 g_jumpTableHAL3&lt;/font&gt;&lt;/div&gt;" style="swimlane;fontStyle=0;childLayout=stackLayout;horizontal=1;startSize=30;horizontalStack=0;resizeParent=1;resizeParentMax=0;resizeLast=0;collapsible=1;marginBottom=0;whiteSpace=wrap;html=1;align=left;" vertex="1" parent="1">
          <mxGeometry x="371" y="-1363" width="478" height="783" as="geometry" />
        </mxCell>
        <mxCell id="V9DL_0UD8Dr6rji1wSYd-34" value="&lt;div style=&quot;font-family: Consolas, &amp;quot;Courier New&amp;quot;, monospace; font-size: 16px; line-height: 22px; white-space: pre;&quot;&gt;&lt;div style=&quot;&quot;&gt;&lt;font style=&quot;color: rgb(0, 0, 0);&quot;&gt;JumpTableHAL3 &lt;span&gt;g_jumpTableHAL3&lt;/span&gt; &lt;span&gt;=&lt;/span&gt;&lt;/font&gt;&lt;/div&gt;&lt;div style=&quot;&quot;&gt;&lt;span&gt;&lt;font style=&quot;color: rgb(0, 0, 0);&quot;&gt;{&lt;/font&gt;&lt;/span&gt;&lt;/div&gt;&lt;div style=&quot;&quot;&gt;&lt;span&gt;&lt;font style=&quot;color: rgb(0, 0, 0);&quot;&gt;&amp;nbsp; &amp;nbsp; open&lt;span style=&quot;color: rgb(180, 180, 180);&quot;&gt;,&lt;/span&gt;&lt;/font&gt;&lt;/span&gt;&lt;/div&gt;&lt;div style=&quot;&quot;&gt;&lt;span&gt;&lt;font style=&quot;color: rgb(0, 0, 0);&quot;&gt;&amp;nbsp; &amp;nbsp; get_number_of_cameras&lt;span style=&quot;color: rgb(180, 180, 180);&quot;&gt;,&lt;/span&gt;&lt;/font&gt;&lt;/span&gt;&lt;/div&gt;&lt;div style=&quot;&quot;&gt;&lt;span&gt;&lt;font style=&quot;color: rgb(0, 0, 0);&quot;&gt;&amp;nbsp; &amp;nbsp; get_camera_info&lt;span style=&quot;color: rgb(180, 180, 180);&quot;&gt;,&lt;/span&gt;&lt;/font&gt;&lt;/span&gt;&lt;/div&gt;&lt;div style=&quot;&quot;&gt;&lt;span&gt;&lt;font style=&quot;color: rgb(0, 0, 0);&quot;&gt;&amp;nbsp; &amp;nbsp; set_callbacks&lt;span style=&quot;color: rgb(180, 180, 180);&quot;&gt;,&lt;/span&gt;&lt;/font&gt;&lt;/span&gt;&lt;/div&gt;&lt;div style=&quot;&quot;&gt;&lt;span&gt;&lt;font style=&quot;color: rgb(0, 0, 0);&quot;&gt;&amp;nbsp; &amp;nbsp; get_vendor_tag_ops&lt;span style=&quot;color: rgb(180, 180, 180);&quot;&gt;,&lt;/span&gt;&lt;/font&gt;&lt;/span&gt;&lt;/div&gt;&lt;div style=&quot;&quot;&gt;&lt;span&gt;&lt;font style=&quot;color: rgb(0, 0, 0);&quot;&gt;&amp;nbsp; &amp;nbsp; &lt;span style=&quot;color: rgb(220, 220, 170);&quot;&gt;open_legacy&lt;/span&gt;&lt;span style=&quot;color: rgb(180, 180, 180);&quot;&gt;,&lt;/span&gt;&lt;/font&gt;&lt;/span&gt;&lt;/div&gt;&lt;div style=&quot;&quot;&gt;&lt;span&gt;&lt;font style=&quot;color: rgb(0, 0, 0);&quot;&gt;&amp;nbsp; &amp;nbsp; &lt;span style=&quot;color: rgb(220, 220, 170);&quot;&gt;set_torch_mode&lt;/span&gt;&lt;span style=&quot;color: rgb(180, 180, 180);&quot;&gt;,&lt;/span&gt;&lt;/font&gt;&lt;/span&gt;&lt;/div&gt;&lt;div style=&quot;&quot;&gt;&lt;span&gt;&lt;font style=&quot;color: rgb(0, 0, 0);&quot;&gt;&amp;nbsp; &amp;nbsp; &lt;span style=&quot;color: rgb(220, 220, 170);&quot;&gt;init&lt;/span&gt;&lt;span style=&quot;color: rgb(180, 180, 180);&quot;&gt;,&lt;/span&gt;&lt;/font&gt;&lt;/span&gt;&lt;/div&gt;&lt;div style=&quot;&quot;&gt;&lt;span&gt;&lt;font style=&quot;color: rgb(0, 0, 0);&quot;&gt;&amp;nbsp; &amp;nbsp; get_tag_count&lt;span style=&quot;color: rgb(180, 180, 180);&quot;&gt;,&lt;/span&gt;&lt;/font&gt;&lt;/span&gt;&lt;/div&gt;&lt;div style=&quot;&quot;&gt;&lt;span&gt;&lt;font style=&quot;color: rgb(0, 0, 0);&quot;&gt;&amp;nbsp; &amp;nbsp; get_all_tags&lt;span style=&quot;color: rgb(180, 180, 180);&quot;&gt;,&lt;/span&gt;&lt;/font&gt;&lt;/span&gt;&lt;/div&gt;&lt;div style=&quot;&quot;&gt;&lt;span&gt;&lt;font style=&quot;color: rgb(0, 0, 0);&quot;&gt;&amp;nbsp; &amp;nbsp; get_section_name&lt;span style=&quot;color: rgb(180, 180, 180);&quot;&gt;,&lt;/span&gt;&lt;/font&gt;&lt;/span&gt;&lt;/div&gt;&lt;div style=&quot;&quot;&gt;&lt;span&gt;&lt;font style=&quot;color: rgb(0, 0, 0);&quot;&gt;&amp;nbsp; &amp;nbsp; get_tag_name&lt;span style=&quot;color: rgb(180, 180, 180);&quot;&gt;,&lt;/span&gt;&lt;/font&gt;&lt;/span&gt;&lt;/div&gt;&lt;div style=&quot;&quot;&gt;&lt;span&gt;&lt;font style=&quot;color: rgb(0, 0, 0);&quot;&gt;&amp;nbsp; &amp;nbsp; get_tag_type&lt;span style=&quot;color: rgb(180, 180, 180);&quot;&gt;,&lt;/span&gt;&lt;/font&gt;&lt;/span&gt;&lt;/div&gt;&lt;div style=&quot;&quot;&gt;&lt;span&gt;&lt;font style=&quot;color: rgb(0, 0, 0);&quot;&gt;&amp;nbsp; &amp;nbsp; close&lt;span style=&quot;color: rgb(180, 180, 180);&quot;&gt;,&lt;/span&gt;&lt;/font&gt;&lt;/span&gt;&lt;/div&gt;&lt;div style=&quot;&quot;&gt;&lt;span&gt;&lt;font style=&quot;color: rgb(0, 0, 0);&quot;&gt;&amp;nbsp; &amp;nbsp; &lt;span style=&quot;color: rgb(220, 220, 170);&quot;&gt;initialize&lt;/span&gt;&lt;span style=&quot;color: rgb(180, 180, 180);&quot;&gt;,&lt;/span&gt;&lt;/font&gt;&lt;/span&gt;&lt;/div&gt;&lt;div style=&quot;&quot;&gt;&lt;span&gt;&lt;font style=&quot;color: rgb(0, 0, 0);&quot;&gt;&amp;nbsp; &amp;nbsp; &lt;span style=&quot;color: rgb(220, 220, 170);&quot;&gt;configure_streams&lt;/span&gt;&lt;span style=&quot;color: rgb(180, 180, 180);&quot;&gt;,&lt;/span&gt;&lt;/font&gt;&lt;/span&gt;&lt;/div&gt;&lt;div style=&quot;&quot;&gt;&lt;span&gt;&lt;font style=&quot;color: rgb(0, 0, 0);&quot;&gt;&amp;nbsp; &amp;nbsp; &lt;span style=&quot;color: rgb(220, 220, 170);&quot;&gt;construct_default_request_settings&lt;/span&gt;&lt;span style=&quot;color: rgb(180, 180, 180);&quot;&gt;,&lt;/span&gt;&lt;/font&gt;&lt;/span&gt;&lt;/div&gt;&lt;div style=&quot;&quot;&gt;&lt;span&gt;&lt;font style=&quot;color: rgb(0, 0, 0);&quot;&gt;&amp;nbsp; &amp;nbsp; &lt;span style=&quot;color: rgb(220, 220, 170);&quot;&gt;process_capture_request&lt;/span&gt;&lt;span style=&quot;color: rgb(180, 180, 180);&quot;&gt;,&lt;/span&gt;&lt;/font&gt;&lt;/span&gt;&lt;/div&gt;&lt;div style=&quot;&quot;&gt;&lt;span&gt;&lt;font style=&quot;color: rgb(0, 0, 0);&quot;&gt;&amp;nbsp; &amp;nbsp; &lt;span style=&quot;color: rgb(220, 220, 170);&quot;&gt;dump&lt;/span&gt;&lt;span style=&quot;color: rgb(180, 180, 180);&quot;&gt;,&lt;/span&gt;&lt;/font&gt;&lt;/span&gt;&lt;/div&gt;&lt;div style=&quot;&quot;&gt;&lt;span&gt;&lt;font style=&quot;color: rgb(0, 0, 0);&quot;&gt;&amp;nbsp; &amp;nbsp; &lt;span style=&quot;color: rgb(220, 220, 170);&quot;&gt;flush&lt;/span&gt;&lt;span style=&quot;color: rgb(180, 180, 180);&quot;&gt;,&lt;/span&gt;&lt;/font&gt;&lt;/span&gt;&lt;/div&gt;&lt;div style=&quot;&quot;&gt;&lt;span&gt;&lt;font style=&quot;color: rgb(0, 0, 0);&quot;&gt;&amp;nbsp; &amp;nbsp; &lt;span style=&quot;color: rgb(220, 220, 170);&quot;&gt;camera_device_status_change&lt;/span&gt;&lt;span style=&quot;color: rgb(180, 180, 180);&quot;&gt;,&lt;/span&gt;&lt;/font&gt;&lt;/span&gt;&lt;/div&gt;&lt;div style=&quot;&quot;&gt;&lt;span&gt;&lt;font style=&quot;color: rgb(0, 0, 0);&quot;&gt;&amp;nbsp; &amp;nbsp; &lt;span style=&quot;color: rgb(220, 220, 170);&quot;&gt;torch_mode_status_change&lt;/span&gt;&lt;span style=&quot;color: rgb(180, 180, 180);&quot;&gt;,&lt;/span&gt;&lt;/font&gt;&lt;/span&gt;&lt;/div&gt;&lt;div style=&quot;&quot;&gt;&lt;span&gt;&lt;font style=&quot;color: rgb(0, 0, 0);&quot;&gt;&amp;nbsp; &amp;nbsp; &lt;span style=&quot;color: rgb(220, 220, 170);&quot;&gt;process_capture_result&lt;/span&gt;&lt;span style=&quot;color: rgb(180, 180, 180);&quot;&gt;,&lt;/span&gt;&lt;/font&gt;&lt;/span&gt;&lt;/div&gt;&lt;div style=&quot;&quot;&gt;&lt;span&gt;&lt;font style=&quot;color: rgb(0, 0, 0);&quot;&gt;&amp;nbsp; &amp;nbsp; &lt;span style=&quot;color: rgb(220, 220, 170);&quot;&gt;notify&lt;/span&gt;&lt;span style=&quot;color: rgb(180, 180, 180);&quot;&gt;,&lt;/span&gt;&lt;/font&gt;&lt;/span&gt;&lt;/div&gt;&lt;div style=&quot;&quot;&gt;&lt;span&gt;&lt;font style=&quot;color: rgb(0, 0, 0);&quot;&gt;&amp;nbsp; &amp;nbsp; &lt;span style=&quot;color: rgb(220, 220, 170);&quot;&gt;get_physical_camera_info&lt;/span&gt;&lt;span style=&quot;color: rgb(180, 180, 180);&quot;&gt;,&lt;/span&gt;&lt;/font&gt;&lt;/span&gt;&lt;/div&gt;&lt;div style=&quot;&quot;&gt;&lt;span&gt;&lt;font style=&quot;color: rgb(0, 0, 0);&quot;&gt;&amp;nbsp; &amp;nbsp; &lt;span style=&quot;color: rgb(220, 220, 170);&quot;&gt;is_stream_combination_supported&lt;/span&gt;&lt;span style=&quot;color: rgb(180, 180, 180);&quot;&gt;,&lt;/span&gt;&lt;/font&gt;&lt;/span&gt;&lt;/div&gt;&lt;div style=&quot;&quot;&gt;&lt;span&gt;&lt;font style=&quot;color: rgb(0, 0, 0);&quot;&gt;&amp;nbsp; &amp;nbsp; &lt;span style=&quot;color: rgb(190, 183, 255);&quot;&gt;NULL&lt;/span&gt;&lt;span style=&quot;color: rgb(180, 180, 180);&quot;&gt;,&lt;/span&gt;&lt;/font&gt;&lt;/span&gt;&lt;/div&gt;&lt;div style=&quot;&quot;&gt;&lt;span&gt;&lt;font style=&quot;color: rgb(0, 0, 0);&quot;&gt;&amp;nbsp; &amp;nbsp; &lt;span style=&quot;color: rgb(190, 183, 255);&quot;&gt;NULL&lt;/span&gt;&lt;span style=&quot;color: rgb(180, 180, 180);&quot;&gt;,&lt;/span&gt;&lt;/font&gt;&lt;/span&gt;&lt;/div&gt;&lt;div style=&quot;&quot;&gt;&lt;span&gt;&lt;font style=&quot;color: rgb(0, 0, 0);&quot;&gt;&amp;nbsp; &amp;nbsp; &lt;span style=&quot;color: rgb(220, 220, 170);&quot;&gt;request_stream_buffers&lt;/span&gt;&lt;span style=&quot;color: rgb(180, 180, 180);&quot;&gt;,&lt;/span&gt;&lt;/font&gt;&lt;/span&gt;&lt;/div&gt;&lt;div style=&quot;&quot;&gt;&lt;span&gt;&lt;font style=&quot;color: rgb(0, 0, 0);&quot;&gt;&amp;nbsp; &amp;nbsp; &lt;span style=&quot;color: rgb(220, 220, 170);&quot;&gt;return_stream_buffers&lt;/span&gt;&lt;span style=&quot;color: rgb(180, 180, 180);&quot;&gt;,&lt;/span&gt;&lt;/font&gt;&lt;/span&gt;&lt;/div&gt;&lt;div style=&quot;&quot;&gt;&lt;span&gt;&lt;font style=&quot;color: rgb(0, 0, 0);&quot;&gt;&amp;nbsp; &amp;nbsp; &lt;span style=&quot;color: rgb(220, 220, 170);&quot;&gt;signal_stream_flush&lt;/span&gt;&lt;/font&gt;&lt;/span&gt;&lt;/div&gt;&lt;div style=&quot;&quot;&gt;&lt;span style=&quot;color: rgb(180, 180, 180);&quot;&gt;&lt;font style=&quot;color: rgb(0, 0, 0);&quot;&gt;};&lt;/font&gt;&lt;/span&gt;&lt;/div&gt;&lt;/div&gt;" style="text;strokeColor=none;fillColor=none;align=left;verticalAlign=middle;spacingLeft=4;spacingRight=4;overflow=hidden;points=[[0,0.5],[1,0.5]];portConstraint=eastwest;rotatable=0;whiteSpace=wrap;html=1;" vertex="1" parent="V9DL_0UD8Dr6rji1wSYd-33">
          <mxGeometry y="30" width="478" height="753" as="geometry" />
        </mxCell>
        <mxCell id="V9DL_0UD8Dr6rji1wSYd-41" style="edgeStyle=orthogonalEdgeStyle;rounded=0;orthogonalLoop=1;jettySize=auto;html=1;entryX=0.001;entryY=0.017;entryDx=0;entryDy=0;entryPerimeter=0;" edge="1" parent="1" source="V9DL_0UD8Dr6rji1wSYd-30" target="V9DL_0UD8Dr6rji1wSYd-33">
          <mxGeometry relative="1" as="geometry" />
        </mxCell>
        <mxCell id="V9DL_0UD8Dr6rji1wSYd-56" style="edgeStyle=orthogonalEdgeStyle;rounded=0;orthogonalLoop=1;jettySize=auto;html=1;entryX=0.474;entryY=1.001;entryDx=0;entryDy=0;entryPerimeter=0;" edge="1" parent="1" source="V9DL_0UD8Dr6rji1wSYd-44" target="V9DL_0UD8Dr6rji1wSYd-34">
          <mxGeometry relative="1" as="geometry">
            <mxPoint x="503.3076923076924" y="-571.1538461538462" as="targetPoint" />
          </mxGeometry>
        </mxCell>
        <mxCell id="V9DL_0UD8Dr6rji1wSYd-69" style="edgeStyle=orthogonalEdgeStyle;rounded=0;orthogonalLoop=1;jettySize=auto;html=1;entryX=0.5;entryY=0;entryDx=0;entryDy=0;" edge="1" parent="1" source="V9DL_0UD8Dr6rji1wSYd-44" target="V9DL_0UD8Dr6rji1wSYd-58">
          <mxGeometry relative="1" as="geometry" />
        </mxCell>
        <mxCell id="V9DL_0UD8Dr6rji1wSYd-44" value="&lt;div style=&quot;color: rgb(218, 218, 218); font-family: Consolas, &amp;quot;Courier New&amp;quot;, monospace; font-size: 16px; line-height: 22px; white-space: pre;&quot;&gt;&lt;div style=&quot;line-height: 22px;&quot;&gt;&lt;span style=&quot;color: rgb(0, 0, 0); background-color: transparent;&quot;&gt;camxhal3.cpp &lt;/span&gt;&lt;span&gt;&lt;span style=&quot;color: rgb(86, 156, 214);&quot;&gt;static&lt;/span&gt; &lt;span style=&quot;color: rgb(86, 156, 214);&quot;&gt;int&lt;/span&gt; &lt;span style=&quot;color: rgb(220, 220, 170);&quot;&gt;get_number_of_cameras&lt;/span&gt;&lt;span style=&quot;color: rgb(180, 180, 180);&quot;&gt;(&lt;/span&gt;&lt;span style=&quot;color: rgb(86, 156, 214);&quot;&gt;void&lt;/span&gt;&lt;span style=&quot;color: rgb(180, 180, 180);&quot;&gt;)&lt;/span&gt;&lt;/span&gt;&lt;/div&gt;&lt;/div&gt;" style="swimlane;fontStyle=0;childLayout=stackLayout;horizontal=1;startSize=30;horizontalStack=0;resizeParent=1;resizeParentMax=0;resizeLast=0;collapsible=1;marginBottom=0;whiteSpace=wrap;html=1;align=left;" vertex="1" parent="1">
          <mxGeometry x="274.9966666666669" y="-480.4966666666665" width="645" height="71" as="geometry" />
        </mxCell>
        <mxCell id="V9DL_0UD8Dr6rji1wSYd-55" style="edgeStyle=orthogonalEdgeStyle;rounded=0;orthogonalLoop=1;jettySize=auto;html=1;" edge="1" parent="V9DL_0UD8Dr6rji1wSYd-44" source="V9DL_0UD8Dr6rji1wSYd-45">
          <mxGeometry relative="1" as="geometry">
            <mxPoint x="693.0033333333331" y="50.50000000000006" as="targetPoint" />
          </mxGeometry>
        </mxCell>
        <mxCell id="V9DL_0UD8Dr6rji1wSYd-45" value="&lt;div style=&quot;color: rgb(218, 218, 218); font-family: Consolas, &amp;quot;Courier New&amp;quot;, monospace; font-size: 16px; line-height: 22px; white-space: pre;&quot;&gt;&lt;span&gt;&lt;span style=&quot;color: rgb(216, 160, 223);&quot;&gt;return&lt;/span&gt; &lt;span style=&quot;color: rgb(86, 156, 214);&quot;&gt;static_cast&lt;/span&gt;&lt;span style=&quot;color: rgb(180, 180, 180);&quot;&gt;&amp;lt;&lt;/span&gt;&lt;span style=&quot;color: rgb(86, 156, 214);&quot;&gt;int&lt;/span&gt;&lt;span style=&quot;color: rgb(180, 180, 180);&quot;&gt;&amp;gt;(&lt;/span&gt;&lt;span style=&quot;color: rgb(200, 200, 200);&quot;&gt;HAL3Module&lt;/span&gt;&lt;span style=&quot;color: rgb(180, 180, 180);&quot;&gt;::&lt;/span&gt;&lt;span style=&quot;color: rgb(220, 220, 170);&quot;&gt;GetInstance&lt;/span&gt;&lt;span style=&quot;color: rgb(180, 180, 180);&quot;&gt;()-&amp;gt;&lt;/span&gt;&lt;span style=&quot;color: rgb(220, 220, 170);&quot;&gt;GetNumCameras&lt;/span&gt;&lt;span style=&quot;color: rgb(180, 180, 180);&quot;&gt;());&lt;/span&gt;&lt;/span&gt;&lt;/div&gt;" style="text;strokeColor=none;fillColor=none;align=left;verticalAlign=middle;spacingLeft=4;spacingRight=4;overflow=hidden;points=[[0,0.5],[1,0.5]];portConstraint=eastwest;rotatable=0;whiteSpace=wrap;html=1;" vertex="1" parent="V9DL_0UD8Dr6rji1wSYd-44">
          <mxGeometry y="30" width="645" height="41" as="geometry" />
        </mxCell>
        <mxCell id="V9DL_0UD8Dr6rji1wSYd-43" style="edgeStyle=orthogonalEdgeStyle;rounded=0;orthogonalLoop=1;jettySize=auto;html=1;" edge="1" parent="1" source="V9DL_0UD8Dr6rji1wSYd-38" target="V9DL_0UD8Dr6rji1wSYd-44">
          <mxGeometry relative="1" as="geometry">
            <mxPoint x="276.66666666666697" y="-410.6666666666665" as="targetPoint" />
          </mxGeometry>
        </mxCell>
        <mxCell id="V9DL_0UD8Dr6rji1wSYd-48" style="edgeStyle=orthogonalEdgeStyle;rounded=0;orthogonalLoop=1;jettySize=auto;html=1;entryX=0.001;entryY=0.159;entryDx=0;entryDy=0;entryPerimeter=0;" edge="1" parent="1" source="V9DL_0UD8Dr6rji1wSYd-17" target="V9DL_0UD8Dr6rji1wSYd-29">
          <mxGeometry relative="1" as="geometry" />
        </mxCell>
        <mxCell id="V9DL_0UD8Dr6rji1wSYd-51" value="&lt;div style=&quot;color: rgb(218, 218, 218); font-family: Consolas, &amp;quot;Courier New&amp;quot;, monospace; font-size: 16px; line-height: 22px; white-space: pre;&quot;&gt;&lt;div style=&quot;&quot;&gt;&lt;span&gt;&lt;span style=&quot;color: rgb(78, 201, 176);&quot;&gt;UINT32&lt;/span&gt; &lt;span style=&quot;color: rgb(78, 201, 176);&quot;&gt;HAL3Module&lt;/span&gt;&lt;span style=&quot;color: rgb(180, 180, 180);&quot;&gt;::&lt;/span&gt;&lt;span style=&quot;color: rgb(220, 220, 170);&quot;&gt;GetNumCameras&lt;/span&gt;&lt;span style=&quot;color: rgb(180, 180, 180);&quot;&gt;()&lt;/span&gt; &lt;span style=&quot;color: rgb(86, 156, 214);&quot;&gt;const&lt;/span&gt;&lt;/span&gt;&lt;/div&gt;&lt;/div&gt;" style="swimlane;fontStyle=0;childLayout=stackLayout;horizontal=1;startSize=30;horizontalStack=0;resizeParent=1;resizeParentMax=0;resizeLast=0;collapsible=1;marginBottom=0;whiteSpace=wrap;html=1;align=left;" vertex="1" parent="1">
          <mxGeometry x="969" y="-444" width="495" height="60" as="geometry" />
        </mxCell>
        <mxCell id="V9DL_0UD8Dr6rji1wSYd-52" value="&lt;div style=&quot;color: rgb(218, 218, 218); font-family: Consolas, &amp;quot;Courier New&amp;quot;, monospace; font-size: 16px; text-align: center; white-space: pre;&quot;&gt;&lt;span style=&quot;background-color: transparent;&quot;&gt;&amp;nbsp; &amp;nbsp; &lt;/span&gt;&lt;span style=&quot;background-color: transparent; color: rgb(216, 160, 223);&quot;&gt;return&lt;/span&gt;&lt;span style=&quot;background-color: transparent;&quot;&gt; m_numFwCameras&lt;/span&gt;&lt;span style=&quot;background-color: transparent; color: rgb(180, 180, 180);&quot;&gt;;&lt;/span&gt;&lt;/div&gt;" style="text;strokeColor=none;fillColor=none;align=left;verticalAlign=middle;spacingLeft=4;spacingRight=4;overflow=hidden;points=[[0,0.5],[1,0.5]];portConstraint=eastwest;rotatable=0;whiteSpace=wrap;html=1;" vertex="1" parent="V9DL_0UD8Dr6rji1wSYd-51">
          <mxGeometry y="30" width="495" height="30" as="geometry" />
        </mxCell>
        <mxCell id="V9DL_0UD8Dr6rji1wSYd-57" style="edgeStyle=orthogonalEdgeStyle;rounded=0;orthogonalLoop=1;jettySize=auto;html=1;entryX=0.535;entryY=1.001;entryDx=0;entryDy=0;entryPerimeter=0;" edge="1" parent="1" source="V9DL_0UD8Dr6rji1wSYd-29" target="V9DL_0UD8Dr6rji1wSYd-8">
          <mxGeometry relative="1" as="geometry" />
        </mxCell>
        <mxCell id="V9DL_0UD8Dr6rji1wSYd-58" value="&lt;div style=&quot;color: rgb(218, 218, 218); font-family: Consolas, &amp;quot;Courier New&amp;quot;, monospace; font-size: 16px; line-height: 22px; white-space: pre;&quot;&gt;&lt;span&gt;&lt;span style=&quot;color: rgb(78, 201, 176);&quot;&gt;HAL3Module&lt;/span&gt;&lt;span style=&quot;color: rgb(180, 180, 180);&quot;&gt;::&lt;/span&gt;&lt;span style=&quot;color: rgb(220, 220, 170);&quot;&gt;HAL3Module&lt;/span&gt;&lt;span style=&quot;color: rgb(180, 180, 180);&quot;&gt;()&lt;/span&gt;&lt;/span&gt;&lt;/div&gt;" style="swimlane;fontStyle=0;childLayout=stackLayout;horizontal=1;startSize=30;horizontalStack=0;resizeParent=1;resizeParentMax=0;resizeLast=0;collapsible=1;marginBottom=0;whiteSpace=wrap;html=1;align=left;" vertex="1" parent="1">
          <mxGeometry x="245.5" y="-342" width="704" height="120" as="geometry" />
        </mxCell>
        <mxCell id="V9DL_0UD8Dr6rji1wSYd-66" value="&lt;div style=&quot;color: rgb(218, 218, 218); font-family: Consolas, &amp;quot;Courier New&amp;quot;, monospace; font-size: 16px; line-height: 22px; white-space: pre;&quot;&gt;&lt;span&gt;&lt;span style=&quot;color: rgb(78, 201, 176);&quot;&gt;    CSLCameraPlatform&lt;/span&gt; &lt;span style=&quot;color: rgb(156, 220, 254);&quot;&gt;CSLPlatform&lt;/span&gt; &lt;span style=&quot;color: rgb(180, 180, 180);&quot;&gt;=&lt;/span&gt; &lt;span style=&quot;color: rgb(180, 180, 180);&quot;&gt;{};&lt;/span&gt;&lt;/span&gt;&lt;/div&gt;" style="text;strokeColor=none;fillColor=none;align=left;verticalAlign=middle;spacingLeft=4;spacingRight=4;overflow=hidden;points=[[0,0.5],[1,0.5]];portConstraint=eastwest;rotatable=0;whiteSpace=wrap;html=1;" vertex="1" parent="V9DL_0UD8Dr6rji1wSYd-58">
          <mxGeometry y="30" width="704" height="30" as="geometry" />
        </mxCell>
        <mxCell id="V9DL_0UD8Dr6rji1wSYd-59" value="&lt;div style=&quot;font-family: Consolas, &amp;quot;Courier New&amp;quot;, monospace; font-size: 16px; line-height: 22px; white-space: pre;&quot;&gt;&lt;font style=&quot;color: rgb(212, 225, 245);&quot;&gt;    m_pStaticSettings &lt;/font&gt;&lt;span style=&quot;color: rgb(180, 180, 180);&quot;&gt;=&lt;/span&gt;&lt;font style=&quot;color: rgb(212, 225, 245);&quot;&gt; &lt;/font&gt;&lt;span style=&quot;color: rgb(78, 201, 176);&quot;&gt;HwEnvironment&lt;/span&gt;&lt;span style=&quot;color: rgb(180, 180, 180);&quot;&gt;::&lt;/span&gt;&lt;span style=&quot;color: rgb(220, 220, 170);&quot;&gt;GetInstance&lt;/span&gt;&lt;span style=&quot;color: rgb(180, 180, 180);&quot;&gt;()-&amp;gt;&lt;/span&gt;&lt;span style=&quot;color: rgb(220, 220, 170);&quot;&gt;GetStaticSettings&lt;/span&gt;&lt;span style=&quot;color: rgb(180, 180, 180);&quot;&gt;();&lt;/span&gt;&lt;/div&gt;" style="text;strokeColor=none;fillColor=none;align=left;verticalAlign=middle;spacingLeft=4;spacingRight=4;overflow=hidden;points=[[0,0.5],[1,0.5]];portConstraint=eastwest;rotatable=0;whiteSpace=wrap;html=1;" vertex="1" parent="V9DL_0UD8Dr6rji1wSYd-58">
          <mxGeometry y="60" width="704" height="30" as="geometry" />
        </mxCell>
        <mxCell id="V9DL_0UD8Dr6rji1wSYd-67" value="&lt;div style=&quot;color: rgb(218, 218, 218); font-family: Consolas, &amp;quot;Courier New&amp;quot;, monospace; font-size: 16px; line-height: 22px; white-space: pre;&quot;&gt;&lt;span&gt;&lt;span style=&quot;color: rgb(156, 220, 254);&quot;&gt;    result&lt;/span&gt; &lt;span style=&quot;color: rgb(180, 180, 180);&quot;&gt;=&lt;/span&gt; &lt;span style=&quot;color: rgb(220, 220, 170);&quot;&gt;CSLQueryCameraPlatform&lt;/span&gt;&lt;span style=&quot;color: rgb(180, 180, 180);&quot;&gt;(&amp;amp;&lt;/span&gt;&lt;span style=&quot;color: rgb(156, 220, 254);&quot;&gt;CSLPlatform&lt;/span&gt;&lt;span style=&quot;color: rgb(180, 180, 180);&quot;&gt;);&lt;/span&gt;&lt;/span&gt;&lt;/div&gt;" style="text;strokeColor=none;fillColor=none;align=left;verticalAlign=middle;spacingLeft=4;spacingRight=4;overflow=hidden;points=[[0,0.5],[1,0.5]];portConstraint=eastwest;rotatable=0;whiteSpace=wrap;html=1;" vertex="1" parent="V9DL_0UD8Dr6rji1wSYd-58">
          <mxGeometry y="90" width="704" height="30" as="geometry" />
        </mxCell>
        <mxCell id="V9DL_0UD8Dr6rji1wSYd-70" value="首次实例化单例对象时调用构造函数" style="text;html=1;align=center;verticalAlign=middle;resizable=0;points=[];autosize=1;strokeColor=none;fillColor=none;" vertex="1" parent="1">
          <mxGeometry x="598" y="-389" width="210" height="26" as="geometry" />
        </mxCell>
        <mxCell id="V9DL_0UD8Dr6rji1wSYd-81" style="edgeStyle=orthogonalEdgeStyle;rounded=0;orthogonalLoop=1;jettySize=auto;html=1;" edge="1" parent="1" source="V9DL_0UD8Dr6rji1wSYd-71" target="V9DL_0UD8Dr6rji1wSYd-76">
          <mxGeometry relative="1" as="geometry" />
        </mxCell>
        <mxCell id="V9DL_0UD8Dr6rji1wSYd-71" value="&lt;div style=&quot;color: rgb(218, 218, 218); font-family: Consolas, &amp;quot;Courier New&amp;quot;, monospace; font-size: 16px; line-height: 22px; white-space: pre;&quot;&gt;&lt;span&gt;&lt;span style=&quot;color: rgb(78, 201, 176);&quot;&gt;HwEnvironment&lt;/span&gt;&lt;span style=&quot;color: rgb(180, 180, 180);&quot;&gt;::&lt;/span&gt;&lt;span style=&quot;color: rgb(220, 220, 170);&quot;&gt;HwEnvironment&lt;/span&gt;&lt;span style=&quot;color: rgb(180, 180, 180);&quot;&gt;()&lt;/span&gt;&lt;/span&gt;&lt;/div&gt;" style="swimlane;fontStyle=0;childLayout=stackLayout;horizontal=1;startSize=30;horizontalStack=0;resizeParent=1;resizeParentMax=0;resizeLast=0;collapsible=1;marginBottom=0;whiteSpace=wrap;html=1;align=left;" vertex="1" parent="1">
          <mxGeometry x="1898" y="-692" width="378" height="60" as="geometry" />
        </mxCell>
        <mxCell id="V9DL_0UD8Dr6rji1wSYd-72" value="&amp;nbsp; &amp;nbsp;&amp;nbsp;&lt;span style=&quot;font-family: Consolas, &amp;quot;Courier New&amp;quot;, monospace; font-size: 16px; white-space: pre; color: rgb(220, 220, 170);&quot;&gt;Initialize&lt;/span&gt;&lt;span style=&quot;font-family: Consolas, &amp;quot;Courier New&amp;quot;, monospace; font-size: 16px; white-space: pre; color: rgb(180, 180, 180);&quot;&gt;();&lt;/span&gt;" style="text;strokeColor=none;fillColor=none;align=left;verticalAlign=middle;spacingLeft=4;spacingRight=4;overflow=hidden;points=[[0,0.5],[1,0.5]];portConstraint=eastwest;rotatable=0;whiteSpace=wrap;html=1;" vertex="1" parent="V9DL_0UD8Dr6rji1wSYd-71">
          <mxGeometry y="30" width="378" height="30" as="geometry" />
        </mxCell>
        <mxCell id="V9DL_0UD8Dr6rji1wSYd-76" value="&lt;div style=&quot;color: rgb(218, 218, 218); font-family: Consolas, &amp;quot;Courier New&amp;quot;, monospace; font-size: 16px; line-height: 22px; white-space: pre;&quot;&gt;&lt;span&gt;&lt;span style=&quot;color: rgb(78, 201, 176);&quot;&gt;CamxResult&lt;/span&gt; &lt;span style=&quot;color: rgb(78, 201, 176);&quot;&gt;HwEnvironment&lt;/span&gt;&lt;span style=&quot;color: rgb(180, 180, 180);&quot;&gt;::&lt;/span&gt;&lt;span style=&quot;color: rgb(220, 220, 170);&quot;&gt;Initialize&lt;/span&gt;&lt;span style=&quot;color: rgb(180, 180, 180);&quot;&gt;()&lt;/span&gt;&lt;/span&gt;&lt;/div&gt;" style="swimlane;fontStyle=0;childLayout=stackLayout;horizontal=1;startSize=30;horizontalStack=0;resizeParent=1;resizeParentMax=0;resizeLast=0;collapsible=1;marginBottom=0;whiteSpace=wrap;html=1;align=left;" vertex="1" parent="1">
          <mxGeometry x="1838" y="-574" width="892" height="247" as="geometry" />
        </mxCell>
        <mxCell id="V9DL_0UD8Dr6rji1wSYd-77" value="&lt;div style=&quot;color: rgb(218, 218, 218); font-family: Consolas, &amp;quot;Courier New&amp;quot;, monospace; font-size: 16px; line-height: 22px; white-space: pre;&quot;&gt;&lt;div style=&quot;&quot;&gt;&lt;span&gt;&amp;nbsp; &amp;nbsp; &lt;span style=&quot;color: rgb(78, 201, 176);&quot;&gt;CSLInitializeParams&lt;/span&gt; &amp;nbsp; &amp;nbsp; &lt;span style=&quot;color: rgb(156, 220, 254);&quot;&gt;params&lt;/span&gt; &amp;nbsp; &amp;nbsp; &amp;nbsp; &amp;nbsp; &amp;nbsp; &amp;nbsp; &amp;nbsp; &amp;nbsp; &amp;nbsp;&lt;span style=&quot;color: rgb(180, 180, 180);&quot;&gt;=&lt;/span&gt; &lt;span style=&quot;color: rgb(180, 180, 180);&quot;&gt;{&lt;/span&gt; &lt;span style=&quot;color: rgb(181, 206, 168);&quot;&gt;0&lt;/span&gt; &lt;span style=&quot;color: rgb(180, 180, 180);&quot;&gt;};&lt;/span&gt;&lt;/span&gt;&lt;/div&gt;&lt;div style=&quot;&quot;&gt;&lt;span&gt;    &lt;/span&gt;&lt;span style=&quot;background-color: transparent; color: rgb(78, 201, 176);&quot;&gt;ExternalComponentInfo&lt;/span&gt;&lt;span style=&quot;background-color: transparent; color: rgb(180, 180, 180);&quot;&gt;*&lt;/span&gt;&lt;span style=&quot;color: light-dark(rgb(218, 218, 218), rgb(50, 50, 50)); background-color: transparent;&quot;&gt; &amp;nbsp;&lt;/span&gt;&lt;span style=&quot;background-color: transparent; color: rgb(156, 220, 254);&quot;&gt;pExternalComponent&lt;/span&gt;&lt;span style=&quot;color: light-dark(rgb(218, 218, 218), rgb(50, 50, 50)); background-color: transparent;&quot;&gt; &amp;nbsp; &amp;nbsp; &amp;nbsp;&lt;/span&gt;&lt;span style=&quot;background-color: transparent; color: rgb(180, 180, 180);&quot;&gt;=&lt;/span&gt;&lt;span style=&quot;color: light-dark(rgb(218, 218, 218), rgb(50, 50, 50)); background-color: transparent;&quot;&gt; &lt;/span&gt;&lt;span style=&quot;background-color: transparent; color: rgb(220, 220, 170);&quot;&gt;GetExternalComponent&lt;/span&gt;&lt;span style=&quot;background-color: transparent; color: rgb(180, 180, 180);&quot;&gt;();&lt;/span&gt;&lt;span style=&quot;color: light-dark(rgb(218, 218, 218), rgb(50, 50, 50)); background-color: transparent;&quot;&gt;&amp;nbsp; &amp;nbsp; &lt;/span&gt;&lt;span style=&quot;background-color: transparent; color: light-dark(rgb(218, 218, 218), rgb(50, 50, 50));&quot;&gt;&amp;nbsp; &amp;nbsp; &lt;/span&gt;&lt;/div&gt;&lt;/div&gt;" style="text;strokeColor=none;fillColor=none;align=left;verticalAlign=middle;spacingLeft=4;spacingRight=4;overflow=hidden;points=[[0,0.5],[1,0.5]];portConstraint=eastwest;rotatable=0;whiteSpace=wrap;html=1;" vertex="1" parent="V9DL_0UD8Dr6rji1wSYd-76">
          <mxGeometry y="30" width="892" height="59" as="geometry" />
        </mxCell>
        <mxCell id="V9DL_0UD8Dr6rji1wSYd-86" value="&lt;div style=&quot;color: rgb(218, 218, 218); font-family: Consolas, &amp;quot;Courier New&amp;quot;, monospace; font-size: 16px; white-space: pre;&quot;&gt;&lt;span style=&quot;color: rgb(78, 201, 176);&quot;&gt;    SettingsManager&lt;/span&gt;&lt;span style=&quot;color: rgb(180, 180, 180);&quot;&gt;*&lt;/span&gt; &amp;nbsp; &amp;nbsp; &amp;nbsp; &amp;nbsp;&lt;span style=&quot;color: rgb(156, 220, 254);&quot;&gt;pStaticSettingsManager&lt;/span&gt; &amp;nbsp;&lt;span style=&quot;color: rgb(180, 180, 180);&quot;&gt;=&lt;/span&gt; &lt;span style=&quot;color: rgb(78, 201, 176);&quot;&gt;SettingsManager&lt;/span&gt;&lt;span style=&quot;color: rgb(180, 180, 180);&quot;&gt;::&lt;/span&gt;&lt;span style=&quot;color: rgb(220, 220, 170);&quot;&gt;Create&lt;/span&gt;&lt;span style=&quot;color: rgb(180, 180, 180);&quot;&gt;(&lt;/span&gt;&lt;span style=&quot;color: rgb(190, 183, 255);&quot;&gt;NULL&lt;/span&gt;&lt;span style=&quot;color: rgb(180, 180, 180);&quot;&gt;);&lt;/span&gt;&lt;/div&gt;" style="text;strokeColor=none;fillColor=none;align=left;verticalAlign=middle;spacingLeft=4;spacingRight=4;overflow=hidden;points=[[0,0.5],[1,0.5]];portConstraint=eastwest;rotatable=0;whiteSpace=wrap;html=1;" vertex="1" parent="V9DL_0UD8Dr6rji1wSYd-76">
          <mxGeometry y="89" width="892" height="30" as="geometry" />
        </mxCell>
        <mxCell id="V9DL_0UD8Dr6rji1wSYd-78" value="&lt;div style=&quot;color: rgb(218, 218, 218); font-family: Consolas, &amp;quot;Courier New&amp;quot;, monospace; font-size: 16px; line-height: 22px; white-space: pre;&quot;&gt;&lt;span&gt;&lt;span style=&quot;color: rgb(86, 156, 214);&quot;&gt;    const&lt;/span&gt; &lt;span style=&quot;color: rgb(78, 201, 176);&quot;&gt;StaticSettings&lt;/span&gt;&lt;span style=&quot;color: rgb(180, 180, 180);&quot;&gt;*&lt;/span&gt; &lt;span style=&quot;color: rgb(156, 220, 254);&quot;&gt;pStaticSettings&lt;/span&gt; &lt;span style=&quot;color: rgb(180, 180, 180);&quot;&gt;=&lt;/span&gt; &lt;span style=&quot;color: rgb(156, 220, 254);&quot;&gt;pStaticSettingsManager&lt;/span&gt;&lt;span style=&quot;color: rgb(180, 180, 180);&quot;&gt;-&amp;gt;&lt;/span&gt;&lt;span style=&quot;color: rgb(220, 220, 170);&quot;&gt;GetStaticSettings&lt;/span&gt;&lt;span style=&quot;color: rgb(180, 180, 180);&quot;&gt;();&lt;/span&gt;&lt;/span&gt;&lt;/div&gt;" style="text;strokeColor=none;fillColor=none;align=left;verticalAlign=middle;spacingLeft=4;spacingRight=4;overflow=hidden;points=[[0,0.5],[1,0.5]];portConstraint=eastwest;rotatable=0;whiteSpace=wrap;html=1;" vertex="1" parent="V9DL_0UD8Dr6rji1wSYd-76">
          <mxGeometry y="119" width="892" height="30" as="geometry" />
        </mxCell>
        <mxCell id="V9DL_0UD8Dr6rji1wSYd-79" value="&lt;span style=&quot;color: rgb(156, 220, 254);&quot;&gt;&lt;/span&gt;&lt;span style=&quot;background-color: light-dark(#ffffff, var(--ge-dark-color, #121212));&quot;&gt;&lt;span style=&quot;font-family: Consolas, &amp;quot;Courier New&amp;quot;, monospace; font-size: 16px; white-space: pre; color: rgb(156, 220, 254);&quot;&gt;    &lt;/span&gt;&lt;span style=&quot;font-family: Consolas, &amp;quot;Courier New&amp;quot;, monospace; font-size: 16px; white-space: pre; color: rgb(156, 220, 254);&quot;&gt;params&lt;/span&gt;&lt;span style=&quot;font-family: Consolas, &amp;quot;Courier New&amp;quot;, monospace; font-size: 16px; white-space: pre; color: rgb(180, 180, 180);&quot;&gt;.&lt;/span&gt;&lt;span style=&quot;font-family: Consolas, &amp;quot;Courier New&amp;quot;, monospace; font-size: 16px; white-space: pre; color: rgb(220, 220, 170);&quot;&gt;mode&lt;/span&gt;&lt;span style=&quot;color: rgb(218, 218, 218); font-family: Consolas, &amp;quot;Courier New&amp;quot;, monospace; font-size: 16px; white-space: pre;&quot;&gt; &amp;nbsp; &amp;nbsp; &amp;nbsp; &amp;nbsp; &amp;nbsp; &amp;nbsp; &amp;nbsp; &amp;nbsp; &amp;nbsp; &amp;nbsp; &amp;nbsp; &amp;nbsp; &amp;nbsp; &amp;nbsp; &amp;nbsp; &amp;nbsp; &amp;nbsp; &amp;nbsp; &amp;nbsp; &amp;nbsp; &amp;nbsp; &lt;/span&gt;&lt;span style=&quot;font-family: Consolas, &amp;quot;Courier New&amp;quot;, monospace; font-size: 16px; white-space: pre; color: rgb(180, 180, 180);&quot;&gt;=&lt;/span&gt;&lt;span style=&quot;color: rgb(218, 218, 218); font-family: Consolas, &amp;quot;Courier New&amp;quot;, monospace; font-size: 16px; white-space: pre;&quot;&gt; &lt;/span&gt;&lt;span style=&quot;font-family: Consolas, &amp;quot;Courier New&amp;quot;, monospace; font-size: 16px; white-space: pre; color: rgb(156, 220, 254);&quot;&gt;pStaticSettings&lt;/span&gt;&lt;span style=&quot;font-family: Consolas, &amp;quot;Courier New&amp;quot;, monospace; font-size: 16px; white-space: pre; color: rgb(180, 180, 180);&quot;&gt;-&amp;gt;&lt;/span&gt;&lt;span style=&quot;color: rgb(218, 218, 218); font-family: Consolas, &amp;quot;Courier New&amp;quot;, monospace; font-size: 16px; white-space: pre;&quot;&gt;CSLMode&lt;/span&gt;&lt;span style=&quot;font-family: Consolas, &amp;quot;Courier New&amp;quot;, monospace; font-size: 16px; white-space: pre; color: rgb(180, 180, 180);&quot;&gt;;&lt;/span&gt;&lt;/span&gt;&lt;div style=&quot;color: rgb(218, 218, 218); font-family: Consolas, &amp;quot;Courier New&amp;quot;, monospace; font-size: 16px; line-height: 22px; white-space: pre;&quot;&gt;&lt;div&gt;&lt;span style=&quot;background-color: light-dark(#ffffff, var(--ge-dark-color, #121212));&quot;&gt;&amp;nbsp; &amp;nbsp; &lt;span style=&quot;color: rgb(156, 220, 254);&quot;&gt;params&lt;/span&gt;&lt;span style=&quot;color: rgb(180, 180, 180);&quot;&gt;.&lt;/span&gt;emulatedSensorParams&lt;span style=&quot;color: rgb(180, 180, 180);&quot;&gt;.&lt;/span&gt;enableSensorSimulation &amp;nbsp; &amp;nbsp;&lt;span style=&quot;color: rgb(180, 180, 180);&quot;&gt;=&lt;/span&gt; &lt;span style=&quot;color: rgb(156, 220, 254);&quot;&gt;pStaticSettings&lt;/span&gt;&lt;span style=&quot;color: rgb(180, 180, 180);&quot;&gt;-&amp;gt;&lt;/span&gt;enableSensorEmulation&lt;span style=&quot;color: rgb(180, 180, 180);&quot;&gt;;&lt;/span&gt;&lt;/span&gt;&lt;/div&gt;&lt;div&gt;&lt;span style=&quot;background-color: light-dark(#ffffff, var(--ge-dark-color, #121212));&quot;&gt;&amp;nbsp; &amp;nbsp; &lt;span style=&quot;color: rgb(156, 220, 254);&quot;&gt;params&lt;/span&gt;&lt;span style=&quot;color: rgb(180, 180, 180);&quot;&gt;.&lt;/span&gt;emulatedSensorParams&lt;span style=&quot;color: rgb(180, 180, 180);&quot;&gt;.&lt;/span&gt;dumpSensorEmulationOutput &lt;span style=&quot;color: rgb(180, 180, 180);&quot;&gt;=&lt;/span&gt; &lt;span style=&quot;color: rgb(156, 220, 254);&quot;&gt;pStaticSettings&lt;/span&gt;&lt;span style=&quot;color: rgb(180, 180, 180);&quot;&gt;-&amp;gt;&lt;/span&gt;dumpSensorEmulationOutput&lt;span style=&quot;color: rgb(180, 180, 180);&quot;&gt;;&lt;/span&gt;&lt;/span&gt;&lt;/div&gt;&lt;/div&gt;&lt;div&gt;&lt;span style=&quot;background-color: light-dark(#ffffff, var(--ge-dark-color, #121212));&quot;&gt;&lt;span style=&quot;font-family: Consolas, &amp;quot;Courier New&amp;quot;, monospace; font-size: 16px; white-space: pre; color: rgb(156, 220, 254);&quot;&gt;    result&lt;/span&gt;&lt;span style=&quot;color: rgb(218, 218, 218); font-family: Consolas, &amp;quot;Courier New&amp;quot;, monospace; font-size: 16px; white-space: pre;&quot;&gt; &lt;/span&gt;&lt;span style=&quot;font-family: Consolas, &amp;quot;Courier New&amp;quot;, monospace; font-size: 16px; white-space: pre; color: rgb(180, 180, 180);&quot;&gt;=&lt;/span&gt;&lt;span style=&quot;color: rgb(218, 218, 218); font-family: Consolas, &amp;quot;Courier New&amp;quot;, monospace; font-size: 16px; white-space: pre;&quot;&gt; &lt;/span&gt;&lt;span style=&quot;font-family: Consolas, &amp;quot;Courier New&amp;quot;, monospace; font-size: 16px; white-space: pre; color: rgb(220, 220, 170);&quot;&gt;CSLInitialize&lt;/span&gt;&lt;span style=&quot;font-family: Consolas, &amp;quot;Courier New&amp;quot;, monospace; font-size: 16px; white-space: pre; color: rgb(180, 180, 180);&quot;&gt;(&amp;amp;&lt;/span&gt;&lt;span style=&quot;font-family: Consolas, &amp;quot;Courier New&amp;quot;, monospace; font-size: 16px; white-space: pre; color: rgb(156, 220, 254);&quot;&gt;params&lt;/span&gt;&lt;span style=&quot;font-family: Consolas, &amp;quot;Courier New&amp;quot;, monospace; font-size: 16px; white-space: pre; color: rgb(180, 180, 180);&quot;&gt;);&lt;/span&gt;&lt;/span&gt;&lt;/div&gt;" style="text;strokeColor=none;fillColor=none;align=left;verticalAlign=middle;spacingLeft=4;spacingRight=4;overflow=hidden;points=[[0,0.5],[1,0.5]];portConstraint=eastwest;rotatable=0;whiteSpace=wrap;html=1;" vertex="1" parent="V9DL_0UD8Dr6rji1wSYd-76">
          <mxGeometry y="149" width="892" height="98" as="geometry" />
        </mxCell>
        <mxCell id="V9DL_0UD8Dr6rji1wSYd-87" value="&lt;div style=&quot;color: rgb(218, 218, 218); font-family: Consolas, &amp;quot;Courier New&amp;quot;, monospace; font-size: 16px; line-height: 22px; white-space: pre;&quot;&gt;&lt;div style=&quot;line-height: 22px;&quot;&gt;&lt;div style=&quot;&quot;&gt;&lt;span&gt;&lt;span style=&quot;color: rgb(78, 201, 176);&quot;&gt;SettingsManager&lt;/span&gt;&lt;span style=&quot;color: rgb(180, 180, 180);&quot;&gt;*&lt;/span&gt; &lt;span style=&quot;color: rgb(78, 201, 176);&quot;&gt;SettingsManager&lt;/span&gt;&lt;span style=&quot;color: rgb(180, 180, 180);&quot;&gt;::&lt;/span&gt;&lt;span style=&quot;color: rgb(220, 220, 170);&quot;&gt;Create&lt;/span&gt;&lt;span style=&quot;color: rgb(180, 180, 180);&quot;&gt;(&lt;/span&gt;&lt;/span&gt;&lt;span style=&quot;background-color: transparent; color: rgb(78, 201, 176);&quot;&gt;StaticSettings&lt;/span&gt;&lt;span style=&quot;background-color: transparent; color: rgb(180, 180, 180);&quot;&gt;*&lt;/span&gt;&lt;span style=&quot;color: light-dark(rgb(218, 218, 218), rgb(50, 50, 50)); background-color: transparent;&quot;&gt; &lt;/span&gt;&lt;span style=&quot;background-color: transparent; color: rgb(154, 154, 154);&quot;&gt;pStaticSettings&lt;/span&gt;&lt;span style=&quot;background-color: transparent; color: rgb(180, 180, 180);&quot;&gt;)&lt;/span&gt;&lt;/div&gt;&lt;/div&gt;&lt;/div&gt;" style="swimlane;fontStyle=0;childLayout=stackLayout;horizontal=1;startSize=30;horizontalStack=0;resizeParent=1;resizeParentMax=0;resizeLast=0;collapsible=1;marginBottom=0;whiteSpace=wrap;html=1;align=left;" vertex="1" parent="1">
          <mxGeometry x="2061" y="-2231" width="739" height="120" as="geometry" />
        </mxCell>
        <mxCell id="V9DL_0UD8Dr6rji1wSYd-88" value="&lt;div style=&quot;color: rgb(218, 218, 218); font-family: Consolas, &amp;quot;Courier New&amp;quot;, monospace; font-size: 16px; line-height: 22px; white-space: pre;&quot;&gt;&lt;span&gt;&lt;span style=&quot;color: rgb(78, 201, 176);&quot;&gt;    SettingsManager&lt;/span&gt;&lt;span style=&quot;color: rgb(180, 180, 180);&quot;&gt;*&lt;/span&gt; &lt;span style=&quot;color: rgb(156, 220, 254);&quot;&gt;pSettingsManager&lt;/span&gt; &lt;span style=&quot;color: rgb(180, 180, 180);&quot;&gt;=&lt;/span&gt; &lt;span style=&quot;color: rgb(190, 183, 255);&quot;&gt;CAMX_NEW&lt;/span&gt; &lt;span style=&quot;color: rgb(78, 201, 176);&quot;&gt;SettingsManager&lt;/span&gt;&lt;span style=&quot;color: rgb(180, 180, 180);&quot;&gt;();&lt;/span&gt;&lt;/span&gt;&lt;/div&gt;" style="text;strokeColor=none;fillColor=none;align=left;verticalAlign=middle;spacingLeft=4;spacingRight=4;overflow=hidden;points=[[0,0.5],[1,0.5]];portConstraint=eastwest;rotatable=0;whiteSpace=wrap;html=1;" vertex="1" parent="V9DL_0UD8Dr6rji1wSYd-87">
          <mxGeometry y="30" width="739" height="30" as="geometry" />
        </mxCell>
        <mxCell id="V9DL_0UD8Dr6rji1wSYd-89" value="&lt;div style=&quot;color: rgb(218, 218, 218); font-family: Consolas, &amp;quot;Courier New&amp;quot;, monospace; font-size: 16px; line-height: 22px; white-space: pre;&quot;&gt;&lt;span&gt;&lt;span style=&quot;color: rgb(156, 220, 254);&quot;&gt;    result&lt;/span&gt; &lt;span style=&quot;color: rgb(180, 180, 180);&quot;&gt;=&lt;/span&gt; &lt;span style=&quot;color: rgb(156, 220, 254);&quot;&gt;pSettingsManager&lt;/span&gt;&lt;span style=&quot;color: rgb(180, 180, 180);&quot;&gt;-&amp;gt;&lt;/span&gt;&lt;span style=&quot;color: rgb(220, 220, 170);&quot;&gt;Initialize&lt;/span&gt;&lt;span style=&quot;color: rgb(180, 180, 180);&quot;&gt;(&lt;/span&gt;&lt;span style=&quot;color: rgb(154, 154, 154);&quot;&gt;pStaticSettings&lt;/span&gt;&lt;span style=&quot;color: rgb(180, 180, 180);&quot;&gt;);&lt;/span&gt;&lt;/span&gt;&lt;/div&gt;" style="text;strokeColor=none;fillColor=none;align=left;verticalAlign=middle;spacingLeft=4;spacingRight=4;overflow=hidden;points=[[0,0.5],[1,0.5]];portConstraint=eastwest;rotatable=0;whiteSpace=wrap;html=1;" vertex="1" parent="V9DL_0UD8Dr6rji1wSYd-87">
          <mxGeometry y="60" width="739" height="30" as="geometry" />
        </mxCell>
        <mxCell id="V9DL_0UD8Dr6rji1wSYd-90" value="&lt;div style=&quot;color: rgb(218, 218, 218); font-family: Consolas, &amp;quot;Courier New&amp;quot;, monospace; font-size: 16px; line-height: 22px; white-space: pre;&quot;&gt;&lt;span&gt;&lt;span style=&quot;color: rgb(216, 160, 223);&quot;&gt;    return&lt;/span&gt; &lt;span style=&quot;color: rgb(156, 220, 254);&quot;&gt;pSettingsManager&lt;/span&gt;&lt;span style=&quot;color: rgb(180, 180, 180);&quot;&gt;;&lt;/span&gt;&lt;/span&gt;&lt;/div&gt;" style="text;strokeColor=none;fillColor=none;align=left;verticalAlign=middle;spacingLeft=4;spacingRight=4;overflow=hidden;points=[[0,0.5],[1,0.5]];portConstraint=eastwest;rotatable=0;whiteSpace=wrap;html=1;" vertex="1" parent="V9DL_0UD8Dr6rji1wSYd-87">
          <mxGeometry y="90" width="739" height="30" as="geometry" />
        </mxCell>
        <mxCell id="V9DL_0UD8Dr6rji1wSYd-92" style="edgeStyle=orthogonalEdgeStyle;rounded=0;orthogonalLoop=1;jettySize=auto;html=1;entryX=0.5;entryY=0;entryDx=0;entryDy=0;" edge="1" parent="1" source="V9DL_0UD8Dr6rji1wSYd-86" target="V9DL_0UD8Dr6rji1wSYd-87">
          <mxGeometry relative="1" as="geometry" />
        </mxCell>
        <mxCell id="V9DL_0UD8Dr6rji1wSYd-93" value="&lt;div style=&quot;color: rgb(218, 218, 218); font-family: Consolas, &amp;quot;Courier New&amp;quot;, monospace; font-size: 16px; line-height: 22px; white-space: pre;&quot;&gt;&lt;div style=&quot;&quot;&gt;&lt;span&gt;&lt;span style=&quot;color: rgb(78, 201, 176);&quot;&gt;CamxResult&lt;/span&gt; &lt;span style=&quot;color: rgb(78, 201, 176);&quot;&gt;SettingsManager&lt;/span&gt;&lt;span style=&quot;color: rgb(180, 180, 180);&quot;&gt;::&lt;/span&gt;&lt;span style=&quot;color: rgb(220, 220, 170);&quot;&gt;Initialize&lt;/span&gt;&lt;span style=&quot;color: rgb(180, 180, 180);&quot;&gt;(&lt;/span&gt;&lt;/span&gt;&lt;span style=&quot;background-color: transparent; color: rgb(78, 201, 176);&quot;&gt;StaticSettings&lt;/span&gt;&lt;span style=&quot;background-color: transparent; color: rgb(180, 180, 180);&quot;&gt;*&lt;/span&gt;&lt;span style=&quot;color: light-dark(rgb(218, 218, 218), rgb(50, 50, 50)); background-color: transparent;&quot;&gt; &lt;/span&gt;&lt;span style=&quot;background-color: transparent; color: rgb(154, 154, 154);&quot;&gt;pStaticSettings&lt;/span&gt;&lt;span style=&quot;background-color: transparent; color: rgb(180, 180, 180);&quot;&gt;)&lt;/span&gt;&lt;/div&gt;&lt;/div&gt;" style="swimlane;fontStyle=0;childLayout=stackLayout;horizontal=1;startSize=30;horizontalStack=0;resizeParent=1;resizeParentMax=0;resizeLast=0;collapsible=1;marginBottom=0;whiteSpace=wrap;html=1;align=left;" vertex="1" parent="1">
          <mxGeometry x="2837" y="-2109" width="793" height="90" as="geometry" />
        </mxCell>
        <mxCell id="V9DL_0UD8Dr6rji1wSYd-94" value="&lt;div style=&quot;color: rgb(218, 218, 218); font-family: Consolas, &amp;quot;Courier New&amp;quot;, monospace; font-size: 16px; line-height: 22px; white-space: pre;&quot;&gt;&lt;span&gt;    m_pOverrideSettingsStore &lt;span style=&quot;color: rgb(180, 180, 180);&quot;&gt;=&lt;/span&gt; &lt;span style=&quot;color: rgb(78, 201, 176);&quot;&gt;OverrideSettingsFile&lt;/span&gt;&lt;span style=&quot;color: rgb(180, 180, 180);&quot;&gt;::&lt;/span&gt;&lt;span style=&quot;color: rgb(220, 220, 170);&quot;&gt;Create&lt;/span&gt;&lt;span style=&quot;color: rgb(180, 180, 180);&quot;&gt;();&lt;/span&gt;&lt;/span&gt;&lt;/div&gt;" style="text;strokeColor=none;fillColor=none;align=left;verticalAlign=middle;spacingLeft=4;spacingRight=4;overflow=hidden;points=[[0,0.5],[1,0.5]];portConstraint=eastwest;rotatable=0;whiteSpace=wrap;html=1;" vertex="1" parent="V9DL_0UD8Dr6rji1wSYd-93">
          <mxGeometry y="30" width="793" height="30" as="geometry" />
        </mxCell>
        <mxCell id="V9DL_0UD8Dr6rji1wSYd-95" value="&lt;div style=&quot;color: rgb(218, 218, 218); font-family: Consolas, &amp;quot;Courier New&amp;quot;, monospace; font-size: 16px; line-height: 22px; white-space: pre;&quot;&gt;&lt;span&gt;&lt;span style=&quot;color: rgb(156, 220, 254);&quot;&gt;    result&lt;/span&gt; &lt;span style=&quot;color: rgb(180, 180, 180);&quot;&gt;=&lt;/span&gt; &lt;span style=&quot;color: rgb(220, 220, 170);&quot;&gt;LoadCamxSettingsOps&lt;/span&gt;&lt;span style=&quot;color: rgb(180, 180, 180);&quot;&gt;(&amp;amp;&lt;/span&gt;m_camxsettingsOps&lt;span style=&quot;color: rgb(180, 180, 180);&quot;&gt;);&lt;/span&gt;&lt;/span&gt;&lt;/div&gt;" style="text;strokeColor=none;fillColor=none;align=left;verticalAlign=middle;spacingLeft=4;spacingRight=4;overflow=hidden;points=[[0,0.5],[1,0.5]];portConstraint=eastwest;rotatable=0;whiteSpace=wrap;html=1;" vertex="1" parent="V9DL_0UD8Dr6rji1wSYd-93">
          <mxGeometry y="60" width="793" height="30" as="geometry" />
        </mxCell>
        <mxCell id="V9DL_0UD8Dr6rji1wSYd-97" style="edgeStyle=orthogonalEdgeStyle;rounded=0;orthogonalLoop=1;jettySize=auto;html=1;entryX=0.5;entryY=0;entryDx=0;entryDy=0;" edge="1" parent="1" source="V9DL_0UD8Dr6rji1wSYd-89" target="V9DL_0UD8Dr6rji1wSYd-93">
          <mxGeometry relative="1" as="geometry" />
        </mxCell>
        <mxCell id="V9DL_0UD8Dr6rji1wSYd-98" value="&lt;div style=&quot;color: rgb(218, 218, 218); font-family: Consolas, &amp;quot;Courier New&amp;quot;, monospace; font-size: 16px; line-height: 22px; white-space: pre;&quot;&gt;&lt;div style=&quot;line-height: 22px;&quot;&gt;&lt;span&gt;&lt;span style=&quot;color: rgb(78, 201, 176);&quot;&gt;OverrideSettingsFile&lt;/span&gt;&lt;span style=&quot;color: rgb(180, 180, 180);&quot;&gt;*&lt;/span&gt; &lt;span style=&quot;color: rgb(78, 201, 176);&quot;&gt;OverrideSettingsFile&lt;/span&gt;&lt;span style=&quot;color: rgb(180, 180, 180);&quot;&gt;::&lt;/span&gt;&lt;span style=&quot;color: rgb(220, 220, 170);&quot;&gt;Create&lt;/span&gt;&lt;span style=&quot;color: rgb(180, 180, 180);&quot;&gt;()&lt;/span&gt;&lt;/span&gt;&lt;/div&gt;&lt;/div&gt;" style="swimlane;fontStyle=0;childLayout=stackLayout;horizontal=1;startSize=30;horizontalStack=0;resizeParent=1;resizeParentMax=0;resizeLast=0;collapsible=1;marginBottom=0;whiteSpace=wrap;html=1;align=left;" vertex="1" parent="1">
          <mxGeometry x="3366" y="-1972.9999999999998" width="845" height="90" as="geometry" />
        </mxCell>
        <mxCell id="V9DL_0UD8Dr6rji1wSYd-99" value="&lt;div style=&quot;color: rgb(218, 218, 218); font-family: Consolas, &amp;quot;Courier New&amp;quot;, monospace; font-size: 16px; line-height: 22px; white-space: pre;&quot;&gt;&lt;span style=&quot;color: rgb(78, 201, 176);&quot;&gt;    OverrideSettingsFile&lt;/span&gt;&lt;span style=&quot;color: rgb(180, 180, 180);&quot;&gt;*&lt;/span&gt; &amp;nbsp; &lt;span style=&quot;color: rgb(156, 220, 254);&quot;&gt;pOverrideSettingsFile&lt;/span&gt; &amp;nbsp; &lt;span style=&quot;color: rgb(180, 180, 180);&quot;&gt;=&lt;/span&gt; &lt;span style=&quot;color: rgb(190, 183, 255);&quot;&gt;CAMX_NEW&lt;/span&gt; &lt;span style=&quot;color: rgb(78, 201, 176);&quot;&gt;OverrideSettingsFile&lt;/span&gt;&lt;span style=&quot;color: rgb(180, 180, 180);&quot;&gt;();&lt;/span&gt;&lt;/div&gt;" style="text;strokeColor=none;fillColor=none;align=left;verticalAlign=middle;spacingLeft=4;spacingRight=4;overflow=hidden;points=[[0,0.5],[1,0.5]];portConstraint=eastwest;rotatable=0;whiteSpace=wrap;html=1;" vertex="1" parent="V9DL_0UD8Dr6rji1wSYd-98">
          <mxGeometry y="30" width="845" height="30" as="geometry" />
        </mxCell>
        <mxCell id="V9DL_0UD8Dr6rji1wSYd-100" value="&lt;span style=&quot;font-family: Consolas, &amp;quot;Courier New&amp;quot;, monospace; font-size: 16px; white-space: pre; color: rgb(156, 220, 254);&quot;&gt;    result&lt;/span&gt;&lt;span style=&quot;color: rgb(218, 218, 218); font-family: Consolas, &amp;quot;Courier New&amp;quot;, monospace; font-size: 16px; white-space: pre;&quot;&gt; &lt;/span&gt;&lt;span style=&quot;font-family: Consolas, &amp;quot;Courier New&amp;quot;, monospace; font-size: 16px; white-space: pre; color: rgb(180, 180, 180);&quot;&gt;=&lt;/span&gt;&lt;span style=&quot;color: rgb(218, 218, 218); font-family: Consolas, &amp;quot;Courier New&amp;quot;, monospace; font-size: 16px; white-space: pre;&quot;&gt; &lt;/span&gt;&lt;span style=&quot;font-family: Consolas, &amp;quot;Courier New&amp;quot;, monospace; font-size: 16px; white-space: pre; color: rgb(156, 220, 254);&quot;&gt;pOverrideSettingsFile&lt;/span&gt;&lt;span style=&quot;font-family: Consolas, &amp;quot;Courier New&amp;quot;, monospace; font-size: 16px; white-space: pre; color: rgb(180, 180, 180);&quot;&gt;-&amp;gt;&lt;/span&gt;&lt;span style=&quot;font-family: Consolas, &amp;quot;Courier New&amp;quot;, monospace; font-size: 16px; white-space: pre; color: rgb(220, 220, 170);&quot;&gt;Initialize&lt;/span&gt;&lt;span style=&quot;font-family: Consolas, &amp;quot;Courier New&amp;quot;, monospace; font-size: 16px; white-space: pre; color: rgb(180, 180, 180);&quot;&gt;();&lt;/span&gt;" style="text;strokeColor=none;fillColor=none;align=left;verticalAlign=middle;spacingLeft=4;spacingRight=4;overflow=hidden;points=[[0,0.5],[1,0.5]];portConstraint=eastwest;rotatable=0;whiteSpace=wrap;html=1;" vertex="1" parent="V9DL_0UD8Dr6rji1wSYd-98">
          <mxGeometry y="60" width="845" height="30" as="geometry" />
        </mxCell>
        <mxCell id="V9DL_0UD8Dr6rji1wSYd-102" style="edgeStyle=orthogonalEdgeStyle;rounded=0;orthogonalLoop=1;jettySize=auto;html=1;entryX=0.5;entryY=0;entryDx=0;entryDy=0;" edge="1" parent="1" source="V9DL_0UD8Dr6rji1wSYd-94" target="V9DL_0UD8Dr6rji1wSYd-98">
          <mxGeometry relative="1" as="geometry" />
        </mxCell>
        <mxCell id="V9DL_0UD8Dr6rji1wSYd-103" value="&lt;div style=&quot;color: rgb(218, 218, 218); font-family: Consolas, &amp;quot;Courier New&amp;quot;, monospace; font-size: 16px; line-height: 22px; white-space: pre;&quot;&gt;&lt;div style=&quot;&quot;&gt;&lt;span&gt;&lt;span style=&quot;color: rgb(78, 201, 176);&quot;&gt;CamxResult&lt;/span&gt; &lt;span style=&quot;color: rgb(220, 220, 170);&quot;&gt;CSLInitialize&lt;/span&gt;&lt;span style=&quot;color: rgb(180, 180, 180);&quot;&gt;(&lt;/span&gt;&lt;/span&gt;&lt;span style=&quot;background-color: transparent; color: rgb(78, 201, 176);&quot;&gt;CSLInitializeParams&lt;/span&gt;&lt;span style=&quot;background-color: transparent; color: rgb(180, 180, 180);&quot;&gt;*&lt;/span&gt;&lt;span style=&quot;color: light-dark(rgb(218, 218, 218), rgb(50, 50, 50)); background-color: transparent;&quot;&gt; &lt;/span&gt;&lt;span style=&quot;background-color: transparent; color: rgb(154, 154, 154);&quot;&gt;pInitializeParams&lt;/span&gt;&lt;span style=&quot;background-color: transparent; color: rgb(180, 180, 180);&quot;&gt;)&lt;/span&gt;&lt;/div&gt;&lt;/div&gt;" style="swimlane;fontStyle=0;childLayout=stackLayout;horizontal=1;startSize=30;horizontalStack=0;resizeParent=1;resizeParentMax=0;resizeLast=0;collapsible=1;marginBottom=0;whiteSpace=wrap;html=1;align=left;" vertex="1" parent="1">
          <mxGeometry x="2328" y="-269" width="787" height="118" as="geometry" />
        </mxCell>
        <mxCell id="V9DL_0UD8Dr6rji1wSYd-104" value="&lt;div style=&quot;color: rgb(218, 218, 218); font-family: Consolas, &amp;quot;Courier New&amp;quot;, monospace; font-size: 16px; line-height: 22px; white-space: pre;&quot;&gt;&lt;span&gt;&lt;span style=&quot;color: rgb(200, 200, 200);&quot;&gt;    g_pCSLModeManager&lt;/span&gt; &lt;span style=&quot;color: rgb(180, 180, 180);&quot;&gt;=&lt;/span&gt; &lt;span style=&quot;color: rgb(190, 183, 255);&quot;&gt;CAMX_NEW&lt;/span&gt; &lt;span style=&quot;color: rgb(78, 201, 176);&quot;&gt;CSLModeManager&lt;/span&gt;&lt;span style=&quot;color: rgb(180, 180, 180);&quot;&gt;(&lt;/span&gt;&lt;span style=&quot;color: rgb(154, 154, 154);&quot;&gt;pInitializeParams&lt;/span&gt;&lt;span style=&quot;color: rgb(180, 180, 180);&quot;&gt;);&lt;/span&gt;&lt;/span&gt;&lt;/div&gt;" style="text;strokeColor=none;fillColor=none;align=left;verticalAlign=middle;spacingLeft=4;spacingRight=4;overflow=hidden;points=[[0,0.5],[1,0.5]];portConstraint=eastwest;rotatable=0;whiteSpace=wrap;html=1;" vertex="1" parent="V9DL_0UD8Dr6rji1wSYd-103">
          <mxGeometry y="30" width="787" height="30" as="geometry" />
        </mxCell>
        <mxCell id="V9DL_0UD8Dr6rji1wSYd-106" value="&lt;div style=&quot;font-family: Consolas, &amp;quot;Courier New&amp;quot;, monospace; font-size: 16px; line-height: 22px; white-space: pre;&quot;&gt;&lt;div style=&quot;color: rgb(218, 218, 218);&quot;&gt;&lt;span&gt;&lt;span style=&quot;color: rgb(78, 201, 176);&quot;&gt;    CSLJumpTable&lt;/span&gt;&lt;span style=&quot;color: rgb(180, 180, 180);&quot;&gt;*&lt;/span&gt; &lt;span style=&quot;color: rgb(156, 220, 254);&quot;&gt;pJumpTable&lt;/span&gt; &lt;span style=&quot;color: rgb(180, 180, 180);&quot;&gt;=&lt;/span&gt; &lt;span style=&quot;color: rgb(200, 200, 200);&quot;&gt;g_pCSLModeManager&lt;/span&gt;&lt;span style=&quot;color: rgb(180, 180, 180);&quot;&gt;-&amp;gt;&lt;/span&gt;&lt;span style=&quot;color: rgb(220, 220, 170);&quot;&gt;GetJumpTable&lt;/span&gt;&lt;span style=&quot;color: rgb(180, 180, 180);&quot;&gt;();&lt;/span&gt;&lt;/span&gt;&lt;/div&gt;&lt;div style=&quot;&quot;&gt;&lt;span&gt;&lt;font color=&quot;#dadada&quot;&gt;    &lt;/font&gt;&lt;span style=&quot;color: rgb(216, 160, 223);&quot;&gt;return&lt;/span&gt;&lt;font color=&quot;#dadada&quot;&gt; &lt;/font&gt;&lt;span style=&quot;color: rgb(156, 220, 254);&quot;&gt;pJumpTable&lt;/span&gt;&lt;span style=&quot;color: rgb(180, 180, 180);&quot;&gt;-&amp;gt;&lt;/span&gt;&lt;font color=&quot;#dadada&quot;&gt;CSLInitialize&lt;/font&gt;&lt;span style=&quot;color: rgb(180, 180, 180);&quot;&gt;();&lt;/span&gt;&lt;/span&gt;&lt;/div&gt;&lt;/div&gt;" style="text;strokeColor=none;fillColor=none;align=left;verticalAlign=middle;spacingLeft=4;spacingRight=4;overflow=hidden;points=[[0,0.5],[1,0.5]];portConstraint=eastwest;rotatable=0;whiteSpace=wrap;html=1;" vertex="1" parent="V9DL_0UD8Dr6rji1wSYd-103">
          <mxGeometry y="60" width="787" height="58" as="geometry" />
        </mxCell>
        <mxCell id="V9DL_0UD8Dr6rji1wSYd-109" value="&lt;div style=&quot;color: rgb(218, 218, 218); font-family: Consolas, &amp;quot;Courier New&amp;quot;, monospace; font-size: 16px; line-height: 22px; white-space: pre;&quot;&gt;&lt;div style=&quot;&quot;&gt;&lt;span&gt;&lt;span style=&quot;color: rgb(78, 201, 176);&quot;&gt;CSLModeManager&lt;/span&gt;&lt;span style=&quot;color: rgb(180, 180, 180);&quot;&gt;::&lt;/span&gt;&lt;span style=&quot;color: rgb(220, 220, 170);&quot;&gt;CSLModeManager&lt;/span&gt;&lt;span style=&quot;color: rgb(180, 180, 180);&quot;&gt;(&lt;/span&gt;&lt;/span&gt;&lt;span style=&quot;background-color: transparent; color: rgb(86, 156, 214);&quot;&gt;const&lt;/span&gt;&lt;span style=&quot;color: light-dark(rgb(218, 218, 218), rgb(50, 50, 50)); background-color: transparent;&quot;&gt; &lt;/span&gt;&lt;span style=&quot;background-color: transparent; color: rgb(78, 201, 176);&quot;&gt;CSLInitializeParams&lt;/span&gt;&lt;span style=&quot;background-color: transparent; color: rgb(180, 180, 180);&quot;&gt;*&lt;/span&gt;&lt;span style=&quot;color: light-dark(rgb(218, 218, 218), rgb(50, 50, 50)); background-color: transparent;&quot;&gt; &lt;/span&gt;&lt;span style=&quot;background-color: transparent; color: rgb(154, 154, 154);&quot;&gt;pInitParams&lt;/span&gt;&lt;span style=&quot;background-color: transparent; color: rgb(180, 180, 180);&quot;&gt;)&lt;/span&gt;&lt;/div&gt;&lt;/div&gt;" style="swimlane;fontStyle=0;childLayout=stackLayout;horizontal=1;startSize=30;horizontalStack=0;resizeParent=1;resizeParentMax=0;resizeLast=0;collapsible=1;marginBottom=0;whiteSpace=wrap;html=1;align=left;" vertex="1" parent="1">
          <mxGeometry x="3278" y="-278" width="675" height="81" as="geometry" />
        </mxCell>
        <mxCell id="V9DL_0UD8Dr6rji1wSYd-110" value="&lt;div style=&quot;font-family: Consolas, &amp;quot;Courier New&amp;quot;, monospace; font-size: 16px; line-height: 22px; white-space: pre;&quot;&gt;&lt;div style=&quot;&quot;&gt;&lt;font style=&quot;color: rgb(0, 127, 255);&quot;&gt;    m_pJumpTable &amp;nbsp; &amp;nbsp; &amp;nbsp; &amp;nbsp; &amp;nbsp; &amp;nbsp;&lt;/font&gt;&lt;span style=&quot;color: rgb(180, 180, 180);&quot;&gt;=&lt;/span&gt;&lt;font style=&quot;color: rgb(0, 127, 255);&quot;&gt; &lt;/font&gt;&lt;span style=&quot;color: rgb(220, 220, 170);&quot;&gt;GetCSLJumpTableIFH&lt;/span&gt;&lt;span style=&quot;color: rgb(180, 180, 180);&quot;&gt;();&lt;/span&gt;&lt;/div&gt;&lt;div style=&quot;&quot;&gt;&lt;font style=&quot;color: light-dark(rgb(0, 127, 255), rgb(50, 50, 50));&quot;&gt;&amp;nbsp; &amp;nbsp; m_mode &amp;nbsp; &amp;nbsp; &amp;nbsp; &amp;nbsp; &amp;nbsp; &amp;nbsp; &amp;nbsp; &amp;nbsp; &amp;nbsp;&lt;/font&gt;&lt;span style=&quot;color: rgb(180, 180, 180);&quot;&gt;=&lt;/span&gt;&lt;font style=&quot;color: light-dark(rgb(0, 127, 255), rgb(50, 50, 50));&quot;&gt; &lt;/font&gt;&lt;span style=&quot;color: rgb(86, 156, 214);&quot;&gt;static_cast&lt;/span&gt;&lt;span style=&quot;color: rgb(180, 180, 180);&quot;&gt;&amp;lt;&lt;/span&gt;&lt;span style=&quot;color: rgb(78, 201, 176);&quot;&gt;CSLMode&lt;/span&gt;&lt;span style=&quot;color: rgb(180, 180, 180);&quot;&gt;&amp;gt;(&lt;/span&gt;&lt;span style=&quot;color: rgb(154, 154, 154);&quot;&gt;pInitParams&lt;/span&gt;&lt;span style=&quot;color: rgb(180, 180, 180);&quot;&gt;-&amp;gt;&lt;/span&gt;&lt;font style=&quot;color: light-dark(rgb(0, 127, 255), rgb(50, 50, 50));&quot;&gt;mode&lt;/font&gt;&lt;span style=&quot;color: rgb(180, 180, 180);&quot;&gt;);&lt;/span&gt;&lt;/div&gt;&lt;/div&gt;" style="text;strokeColor=none;fillColor=none;align=left;verticalAlign=middle;spacingLeft=4;spacingRight=4;overflow=hidden;points=[[0,0.5],[1,0.5]];portConstraint=eastwest;rotatable=0;whiteSpace=wrap;html=1;" vertex="1" parent="V9DL_0UD8Dr6rji1wSYd-109">
          <mxGeometry y="30" width="675" height="51" as="geometry" />
        </mxCell>
        <mxCell id="V9DL_0UD8Dr6rji1wSYd-113" value="&lt;div style=&quot;color: rgb(218, 218, 218); font-family: Consolas, &amp;quot;Courier New&amp;quot;, monospace; font-size: 16px; line-height: 22px; white-space: pre;&quot;&gt;&lt;div style=&quot;&quot;&gt;&lt;span&gt;&lt;span style=&quot;color: rgb(78, 201, 176);&quot;&gt;CSLJumpTable&lt;/span&gt;&lt;span style=&quot;color: rgb(180, 180, 180);&quot;&gt;*&lt;/span&gt; &lt;span style=&quot;color: rgb(220, 220, 170);&quot;&gt;GetCSLJumpTableIFH&lt;/span&gt;&lt;span style=&quot;color: rgb(180, 180, 180);&quot;&gt;(&lt;/span&gt;&lt;span style=&quot;color: rgb(86, 156, 214);&quot;&gt;void&lt;/span&gt;&lt;span style=&quot;color: rgb(180, 180, 180);&quot;&gt;)&lt;/span&gt;&lt;/span&gt;&lt;/div&gt;&lt;/div&gt;" style="swimlane;fontStyle=0;childLayout=stackLayout;horizontal=1;startSize=30;horizontalStack=0;resizeParent=1;resizeParentMax=0;resizeLast=0;collapsible=1;marginBottom=0;whiteSpace=wrap;html=1;align=left;" vertex="1" parent="1">
          <mxGeometry x="4024" y="-237" width="444" height="60" as="geometry" />
        </mxCell>
        <mxCell id="V9DL_0UD8Dr6rji1wSYd-114" value="&lt;span style=&quot;font-family: Consolas, &amp;quot;Courier New&amp;quot;, monospace; font-size: 16px; text-align: center; white-space: pre; color: rgb(216, 160, 223);&quot;&gt;&lt;font color=&quot;#dadada&quot;&gt;    &lt;/font&gt;&lt;/span&gt;&lt;span style=&quot;font-family: Consolas, &amp;quot;Courier New&amp;quot;, monospace; font-size: 16px; text-align: center; white-space: pre; color: rgb(216, 160, 223);&quot;&gt;return&lt;/span&gt;&lt;span style=&quot;color: rgb(218, 218, 218); font-family: Consolas, &amp;quot;Courier New&amp;quot;, monospace; font-size: 16px; text-align: center; white-space: pre;&quot;&gt; &lt;/span&gt;&lt;span style=&quot;font-family: Consolas, &amp;quot;Courier New&amp;quot;, monospace; font-size: 16px; text-align: center; white-space: pre; color: rgb(180, 180, 180);&quot;&gt;&amp;amp;&lt;/span&gt;&lt;span style=&quot;font-family: Consolas, &amp;quot;Courier New&amp;quot;, monospace; font-size: 16px; text-align: center; white-space: pre; color: rgb(200, 200, 200);&quot;&gt;g_CSLjumpTableIFH&lt;/span&gt;&lt;span style=&quot;font-family: Consolas, &amp;quot;Courier New&amp;quot;, monospace; font-size: 16px; text-align: center; white-space: pre; color: rgb(180, 180, 180);&quot;&gt;;&lt;/span&gt;" style="text;strokeColor=none;fillColor=none;align=left;verticalAlign=middle;spacingLeft=4;spacingRight=4;overflow=hidden;points=[[0,0.5],[1,0.5]];portConstraint=eastwest;rotatable=0;whiteSpace=wrap;html=1;" vertex="1" parent="V9DL_0UD8Dr6rji1wSYd-113">
          <mxGeometry y="30" width="444" height="30" as="geometry" />
        </mxCell>
        <mxCell id="V9DL_0UD8Dr6rji1wSYd-117" style="edgeStyle=orthogonalEdgeStyle;rounded=0;orthogonalLoop=1;jettySize=auto;html=1;entryX=0;entryY=0.25;entryDx=0;entryDy=0;" edge="1" parent="1" source="V9DL_0UD8Dr6rji1wSYd-110" target="V9DL_0UD8Dr6rji1wSYd-113">
          <mxGeometry relative="1" as="geometry" />
        </mxCell>
        <mxCell id="V9DL_0UD8Dr6rji1wSYd-118" value="&lt;span style=&quot;font-family: Consolas, &amp;quot;Courier New&amp;quot;, monospace; font-size: 16px; white-space: pre; color: rgb(78, 201, 176);&quot;&gt;CSLJumpTable&lt;/span&gt;&lt;span style=&quot;color: rgb(218, 218, 218); font-family: Consolas, &amp;quot;Courier New&amp;quot;, monospace; font-size: 16px; white-space: pre;&quot;&gt; &lt;/span&gt;&lt;span style=&quot;font-family: Consolas, &amp;quot;Courier New&amp;quot;, monospace; font-size: 16px; white-space: pre; color: rgb(200, 200, 200);&quot;&gt;g_CSLjumpTableIFH&lt;/span&gt;" style="swimlane;fontStyle=0;childLayout=stackLayout;horizontal=1;startSize=30;horizontalStack=0;resizeParent=1;resizeParentMax=0;resizeLast=0;collapsible=1;marginBottom=0;whiteSpace=wrap;html=1;align=left;" vertex="1" parent="1">
          <mxGeometry x="4638" y="-212" width="444" height="1203" as="geometry">
            <mxRectangle x="3326" y="295" width="299" height="31" as="alternateBounds" />
          </mxGeometry>
        </mxCell>
        <mxCell id="V9DL_0UD8Dr6rji1wSYd-119" value="&lt;div style=&quot;font-family: Consolas, &amp;quot;Courier New&amp;quot;, monospace; font-size: 16px; line-height: 22px; white-space: pre;&quot;&gt;&lt;div style=&quot;&quot;&gt;&lt;div style=&quot;line-height: 22px;&quot;&gt;&lt;div style=&quot;&quot;&gt;&lt;font style=&quot;color: rgb(51, 153, 255);&quot;&gt;CSLJumpTable g_CSLjumpTableHW &lt;span&gt;=&lt;/span&gt;&lt;/font&gt;&lt;/div&gt;&lt;div style=&quot;&quot;&gt;&lt;span&gt;&lt;font style=&quot;color: rgb(51, 153, 255);&quot;&gt;{&lt;/font&gt;&lt;/span&gt;&lt;/div&gt;&lt;div style=&quot;&quot;&gt;&lt;font style=&quot;color: rgb(51, 153, 255);&quot;&gt;&amp;nbsp; &amp;nbsp; &lt;/font&gt;&lt;font&gt;&lt;font style=&quot;color: rgb(153, 51, 255);&quot;&gt;CSLInitializeHW&lt;/font&gt;&lt;span style=&quot;color: rgb(180, 180, 180);&quot;&gt;,&lt;/span&gt;&lt;/font&gt;&lt;/div&gt;&lt;div style=&quot;&quot;&gt;&lt;span&gt;&lt;font style=&quot;color: rgb(51, 153, 255);&quot;&gt;&amp;nbsp; &amp;nbsp; CSLUninitializeHW&lt;span style=&quot;color: rgb(180, 180, 180);&quot;&gt;,&lt;/span&gt;&lt;/font&gt;&lt;/span&gt;&lt;/div&gt;&lt;div style=&quot;&quot;&gt;&lt;span&gt;&lt;font style=&quot;color: rgb(51, 153, 255);&quot;&gt;&amp;nbsp; &amp;nbsp; CSLOpenHW&lt;span style=&quot;color: rgb(180, 180, 180);&quot;&gt;,&lt;/span&gt;&lt;/font&gt;&lt;/span&gt;&lt;/div&gt;&lt;div style=&quot;&quot;&gt;&lt;span&gt;&lt;font style=&quot;color: rgb(51, 153, 255);&quot;&gt;&amp;nbsp; &amp;nbsp; CSLCloseHW&lt;span style=&quot;color: rgb(180, 180, 180);&quot;&gt;,&lt;/span&gt;&lt;/font&gt;&lt;/span&gt;&lt;/div&gt;&lt;div style=&quot;&quot;&gt;&lt;span&gt;&lt;font style=&quot;color: rgb(51, 153, 255);&quot;&gt;&amp;nbsp; &amp;nbsp; CSLAddReferenceHW&lt;span style=&quot;color: rgb(180, 180, 180);&quot;&gt;,&lt;/span&gt;&lt;/font&gt;&lt;/span&gt;&lt;/div&gt;&lt;div style=&quot;&quot;&gt;&lt;span&gt;&lt;font style=&quot;color: rgb(51, 153, 255);&quot;&gt;&amp;nbsp; &amp;nbsp; CSLQueryCameraPlatformHW&lt;span style=&quot;color: rgb(180, 180, 180);&quot;&gt;,&lt;/span&gt;&lt;/font&gt;&lt;/span&gt;&lt;/div&gt;&lt;div style=&quot;&quot;&gt;&lt;span&gt;&lt;font style=&quot;color: rgb(51, 153, 255);&quot;&gt;&amp;nbsp; &amp;nbsp; CSLImageSensorProbeHW&lt;span style=&quot;color: rgb(180, 180, 180);&quot;&gt;,&lt;/span&gt;&lt;/font&gt;&lt;/span&gt;&lt;/div&gt;&lt;div style=&quot;&quot;&gt;&lt;span&gt;&lt;font style=&quot;color: rgb(51, 153, 255);&quot;&gt;&amp;nbsp; &amp;nbsp; CSLSetDebugBufferHW&lt;span style=&quot;color: rgb(180, 180, 180);&quot;&gt;,&lt;/span&gt;&lt;/font&gt;&lt;/span&gt;&lt;/div&gt;&lt;div style=&quot;&quot;&gt;&lt;span&gt;&lt;font style=&quot;color: rgb(51, 153, 255);&quot;&gt;&amp;nbsp; &amp;nbsp; CSLEnumerateDevicesHW&lt;span style=&quot;color: rgb(180, 180, 180);&quot;&gt;,&lt;/span&gt;&lt;/font&gt;&lt;/span&gt;&lt;/div&gt;&lt;div style=&quot;&quot;&gt;&lt;span&gt;&lt;font style=&quot;color: rgb(51, 153, 255);&quot;&gt;&amp;nbsp; &amp;nbsp; CSLQueryDeviceCapabilitiesHW&lt;span style=&quot;color: rgb(180, 180, 180);&quot;&gt;,&lt;/span&gt;&lt;/font&gt;&lt;/span&gt;&lt;/div&gt;&lt;div style=&quot;&quot;&gt;&lt;span&gt;&lt;font style=&quot;color: rgb(51, 153, 255);&quot;&gt;&amp;nbsp; &amp;nbsp; CSLAcquireDeviceHW&lt;span style=&quot;color: rgb(180, 180, 180);&quot;&gt;,&lt;/span&gt;&lt;/font&gt;&lt;/span&gt;&lt;/div&gt;&lt;div style=&quot;&quot;&gt;&lt;span&gt;&lt;font style=&quot;color: rgb(51, 153, 255);&quot;&gt;&amp;nbsp; &amp;nbsp; CSLReleaseDeviceHW&lt;span style=&quot;color: rgb(180, 180, 180);&quot;&gt;,&lt;/span&gt;&lt;/font&gt;&lt;/span&gt;&lt;/div&gt;&lt;div style=&quot;&quot;&gt;&lt;span&gt;&lt;font style=&quot;color: rgb(51, 153, 255);&quot;&gt;&amp;nbsp; &amp;nbsp; CSLLinkHW&lt;span style=&quot;color: rgb(180, 180, 180);&quot;&gt;,&lt;/span&gt;&lt;/font&gt;&lt;/span&gt;&lt;/div&gt;&lt;div style=&quot;&quot;&gt;&lt;span&gt;&lt;font style=&quot;color: rgb(51, 153, 255);&quot;&gt;&amp;nbsp; &amp;nbsp; CSLUnlinkHW&lt;span style=&quot;color: rgb(180, 180, 180);&quot;&gt;,&lt;/span&gt;&lt;/font&gt;&lt;/span&gt;&lt;/div&gt;&lt;div style=&quot;&quot;&gt;&lt;span&gt;&lt;font style=&quot;color: rgb(51, 153, 255);&quot;&gt;&amp;nbsp; &amp;nbsp; CSLSyncLinksHW&lt;span style=&quot;color: rgb(180, 180, 180);&quot;&gt;,&lt;/span&gt;&lt;/font&gt;&lt;/span&gt;&lt;/div&gt;&lt;div style=&quot;&quot;&gt;&lt;span&gt;&lt;font style=&quot;color: rgb(51, 153, 255);&quot;&gt;&amp;nbsp; &amp;nbsp; CSLOpenRequestHW&lt;span style=&quot;color: rgb(180, 180, 180);&quot;&gt;,&lt;/span&gt;&lt;/font&gt;&lt;/span&gt;&lt;/div&gt;&lt;div style=&quot;&quot;&gt;&lt;span&gt;&lt;font style=&quot;color: rgb(51, 153, 255);&quot;&gt;&amp;nbsp; &amp;nbsp; CSLCancelRequestHW&lt;span style=&quot;color: rgb(180, 180, 180);&quot;&gt;,&lt;/span&gt;&lt;/font&gt;&lt;/span&gt;&lt;/div&gt;&lt;div style=&quot;&quot;&gt;&lt;span&gt;&lt;font style=&quot;color: rgb(51, 153, 255);&quot;&gt;&amp;nbsp; &amp;nbsp; CSLStreamOnHW&lt;span style=&quot;color: rgb(180, 180, 180);&quot;&gt;,&lt;/span&gt;&lt;/font&gt;&lt;/span&gt;&lt;/div&gt;&lt;div style=&quot;&quot;&gt;&lt;span&gt;&lt;font style=&quot;color: rgb(51, 153, 255);&quot;&gt;&amp;nbsp; &amp;nbsp; CSLStreamOffHW&lt;span style=&quot;color: rgb(180, 180, 180);&quot;&gt;,&lt;/span&gt;&lt;/font&gt;&lt;/span&gt;&lt;/div&gt;&lt;div style=&quot;&quot;&gt;&lt;span&gt;&lt;font style=&quot;color: rgb(51, 153, 255);&quot;&gt;&amp;nbsp; &amp;nbsp; CSLSingleDeviceStreamOnHW&lt;span style=&quot;color: rgb(180, 180, 180);&quot;&gt;,&lt;/span&gt;&lt;/font&gt;&lt;/span&gt;&lt;/div&gt;&lt;div style=&quot;&quot;&gt;&lt;span&gt;&lt;font style=&quot;color: rgb(51, 153, 255);&quot;&gt;&amp;nbsp; &amp;nbsp; CSLSingleDeviceStreamOffHW&lt;span style=&quot;color: rgb(180, 180, 180);&quot;&gt;,&lt;/span&gt;&lt;/font&gt;&lt;/span&gt;&lt;/div&gt;&lt;div style=&quot;&quot;&gt;&lt;span&gt;&lt;font style=&quot;color: rgb(51, 153, 255);&quot;&gt;&amp;nbsp; &amp;nbsp; CSLSubmitHW&lt;span style=&quot;color: rgb(180, 180, 180);&quot;&gt;,&lt;/span&gt;&lt;/font&gt;&lt;/span&gt;&lt;/div&gt;&lt;div style=&quot;&quot;&gt;&lt;span&gt;&lt;font style=&quot;color: rgb(51, 153, 255);&quot;&gt;&amp;nbsp; &amp;nbsp; CSLFlushLockHW&lt;span style=&quot;color: rgb(180, 180, 180);&quot;&gt;,&lt;/span&gt;&lt;/font&gt;&lt;/span&gt;&lt;/div&gt;&lt;div style=&quot;&quot;&gt;&lt;span&gt;&lt;font style=&quot;color: rgb(51, 153, 255);&quot;&gt;&amp;nbsp; &amp;nbsp; CSLFlushUnlockHW&lt;span style=&quot;color: rgb(180, 180, 180);&quot;&gt;,&lt;/span&gt;&lt;/font&gt;&lt;/span&gt;&lt;/div&gt;&lt;div style=&quot;&quot;&gt;&lt;span&gt;&lt;font style=&quot;color: rgb(51, 153, 255);&quot;&gt;&amp;nbsp; &amp;nbsp; CSLRegisterMessageHandlerHW&lt;span style=&quot;color: rgb(180, 180, 180);&quot;&gt;,&lt;/span&gt;&lt;/font&gt;&lt;/span&gt;&lt;/div&gt;&lt;div style=&quot;&quot;&gt;&lt;span&gt;&lt;font style=&quot;color: rgb(51, 153, 255);&quot;&gt;&amp;nbsp; &amp;nbsp; CSLUnregisterMessageHandlerHW&lt;span style=&quot;color: rgb(180, 180, 180);&quot;&gt;,&lt;/span&gt;&lt;/font&gt;&lt;/span&gt;&lt;/div&gt;&lt;div style=&quot;&quot;&gt;&lt;span&gt;&lt;font style=&quot;color: rgb(51, 153, 255);&quot;&gt;&amp;nbsp; &amp;nbsp; CSLRegisterSessionMessageHandlerHW&lt;span style=&quot;color: rgb(180, 180, 180);&quot;&gt;,&lt;/span&gt;&lt;/font&gt;&lt;/span&gt;&lt;/div&gt;&lt;div style=&quot;&quot;&gt;&lt;span&gt;&lt;font style=&quot;color: rgb(51, 153, 255);&quot;&gt;&amp;nbsp; &amp;nbsp; CSLAllocHW&lt;span style=&quot;color: rgb(180, 180, 180);&quot;&gt;,&lt;/span&gt;&lt;/font&gt;&lt;/span&gt;&lt;/div&gt;&lt;div style=&quot;&quot;&gt;&lt;span&gt;&lt;font style=&quot;color: rgb(51, 153, 255);&quot;&gt;&amp;nbsp; &amp;nbsp; CSLMapBufferHW&lt;span style=&quot;color: rgb(180, 180, 180);&quot;&gt;,&lt;/span&gt;&lt;/font&gt;&lt;/span&gt;&lt;/div&gt;&lt;div style=&quot;&quot;&gt;&lt;span&gt;&lt;font style=&quot;color: rgb(51, 153, 255);&quot;&gt;&amp;nbsp; &amp;nbsp; CSLMapNativeBufferHW&lt;span style=&quot;color: rgb(180, 180, 180);&quot;&gt;,&lt;/span&gt;&lt;/font&gt;&lt;/span&gt;&lt;/div&gt;&lt;div style=&quot;&quot;&gt;&lt;span&gt;&lt;font style=&quot;color: rgb(51, 153, 255);&quot;&gt;&amp;nbsp; &amp;nbsp; CSLGetBufferInfoHW&lt;span style=&quot;color: rgb(180, 180, 180);&quot;&gt;,&lt;/span&gt;&lt;/font&gt;&lt;/span&gt;&lt;/div&gt;&lt;div style=&quot;&quot;&gt;&lt;span&gt;&lt;font style=&quot;color: rgb(51, 153, 255);&quot;&gt;&amp;nbsp; &amp;nbsp; CSLBufferCacheOpHW&lt;span style=&quot;color: rgb(180, 180, 180);&quot;&gt;,&lt;/span&gt;&lt;/font&gt;&lt;/span&gt;&lt;/div&gt;&lt;div style=&quot;&quot;&gt;&lt;span&gt;&lt;font style=&quot;color: rgb(51, 153, 255);&quot;&gt;&amp;nbsp; &amp;nbsp; CSLReleaseBufferHW&lt;span style=&quot;color: rgb(180, 180, 180);&quot;&gt;,&lt;/span&gt;&lt;/font&gt;&lt;/span&gt;&lt;/div&gt;&lt;div style=&quot;&quot;&gt;&lt;span&gt;&lt;font style=&quot;color: rgb(51, 153, 255);&quot;&gt;&amp;nbsp; &amp;nbsp; CSLReleaseBufferForcedHW&lt;span style=&quot;color: rgb(180, 180, 180);&quot;&gt;,&lt;/span&gt;&lt;/font&gt;&lt;/span&gt;&lt;/div&gt;&lt;div style=&quot;&quot;&gt;&lt;span&gt;&lt;font style=&quot;color: rgb(51, 153, 255);&quot;&gt;&amp;nbsp; &amp;nbsp; CSLCreatePrivateFenceHW&lt;span style=&quot;color: rgb(180, 180, 180);&quot;&gt;,&lt;/span&gt;&lt;/font&gt;&lt;/span&gt;&lt;/div&gt;&lt;div style=&quot;&quot;&gt;&lt;span&gt;&lt;font style=&quot;color: rgb(51, 153, 255);&quot;&gt;&amp;nbsp; &amp;nbsp; CSLCreateNativeFenceHW&lt;span style=&quot;color: rgb(180, 180, 180);&quot;&gt;,&lt;/span&gt;&lt;/font&gt;&lt;/span&gt;&lt;/div&gt;&lt;div style=&quot;&quot;&gt;&lt;span&gt;&lt;font style=&quot;color: rgb(51, 153, 255);&quot;&gt;&amp;nbsp; &amp;nbsp; CSLMergeFencesHW&lt;span style=&quot;color: rgb(180, 180, 180);&quot;&gt;,&lt;/span&gt;&lt;/font&gt;&lt;/span&gt;&lt;/div&gt;&lt;div style=&quot;&quot;&gt;&lt;span&gt;&lt;font style=&quot;color: rgb(51, 153, 255);&quot;&gt;&amp;nbsp; &amp;nbsp; CSLGetFenceAttribHW&lt;span style=&quot;color: rgb(180, 180, 180);&quot;&gt;,&lt;/span&gt;&lt;/font&gt;&lt;/span&gt;&lt;/div&gt;&lt;div style=&quot;&quot;&gt;&lt;span&gt;&lt;font style=&quot;color: rgb(51, 153, 255);&quot;&gt;&amp;nbsp; &amp;nbsp; CSLFenceWaitHW&lt;span style=&quot;color: rgb(180, 180, 180);&quot;&gt;,&lt;/span&gt;&lt;/font&gt;&lt;/span&gt;&lt;/div&gt;&lt;div style=&quot;&quot;&gt;&lt;span&gt;&lt;font style=&quot;color: rgb(51, 153, 255);&quot;&gt;&amp;nbsp; &amp;nbsp; CSLFenceWaitMultipleHW&lt;span style=&quot;color: rgb(180, 180, 180);&quot;&gt;,&lt;/span&gt;&lt;/font&gt;&lt;/span&gt;&lt;/div&gt;&lt;div style=&quot;&quot;&gt;&lt;span&gt;&lt;font style=&quot;color: rgb(51, 153, 255);&quot;&gt;&amp;nbsp; &amp;nbsp; CSLFenceAsyncWaitHW&lt;span style=&quot;color: rgb(180, 180, 180);&quot;&gt;,&lt;/span&gt;&lt;/font&gt;&lt;/span&gt;&lt;/div&gt;&lt;div style=&quot;&quot;&gt;&lt;span&gt;&lt;font style=&quot;color: rgb(51, 153, 255);&quot;&gt;&amp;nbsp; &amp;nbsp; CSLFenceAsyncCancelHW&lt;span style=&quot;color: rgb(180, 180, 180);&quot;&gt;,&lt;/span&gt;&lt;/font&gt;&lt;/span&gt;&lt;/div&gt;&lt;div style=&quot;&quot;&gt;&lt;span&gt;&lt;font style=&quot;color: rgb(51, 153, 255);&quot;&gt;&amp;nbsp; &amp;nbsp; CSLFenceSignalHW&lt;span style=&quot;color: rgb(180, 180, 180);&quot;&gt;,&lt;/span&gt;&lt;/font&gt;&lt;/span&gt;&lt;/div&gt;&lt;div style=&quot;&quot;&gt;&lt;span&gt;&lt;font style=&quot;color: rgb(51, 153, 255);&quot;&gt;&amp;nbsp; &amp;nbsp; CSLReleaseFenceHW&lt;span style=&quot;color: rgb(180, 180, 180);&quot;&gt;,&lt;/span&gt;&lt;/font&gt;&lt;/span&gt;&lt;/div&gt;&lt;div style=&quot;&quot;&gt;&lt;span&gt;&lt;font style=&quot;color: rgb(51, 153, 255);&quot;&gt;&amp;nbsp; &amp;nbsp; CSLAcquireHardwareHW&lt;span style=&quot;color: rgb(180, 180, 180);&quot;&gt;,&lt;/span&gt;&lt;/font&gt;&lt;/span&gt;&lt;/div&gt;&lt;div style=&quot;&quot;&gt;&lt;span&gt;&lt;font style=&quot;color: rgb(51, 153, 255);&quot;&gt;&amp;nbsp; &amp;nbsp; CSLReleaseHardwareHW&lt;span style=&quot;color: rgb(180, 180, 180);&quot;&gt;,&lt;/span&gt;&lt;/font&gt;&lt;/span&gt;&lt;/div&gt;&lt;div style=&quot;&quot;&gt;&lt;span&gt;&lt;font style=&quot;color: rgb(51, 153, 255);&quot;&gt;&amp;nbsp; &amp;nbsp; CSLDumpRequestHW&lt;span style=&quot;color: rgb(180, 180, 180);&quot;&gt;,&lt;/span&gt;&lt;/font&gt;&lt;/span&gt;&lt;/div&gt;&lt;div style=&quot;&quot;&gt;&lt;span&gt;&lt;font style=&quot;color: rgb(51, 153, 255);&quot;&gt;&amp;nbsp; &amp;nbsp; CSLDumpAcquiredDevicesHW&lt;span style=&quot;color: rgb(180, 180, 180);&quot;&gt;,&lt;/span&gt;&lt;/font&gt;&lt;/span&gt;&lt;/div&gt;&lt;div style=&quot;&quot;&gt;&lt;span&gt;&lt;font style=&quot;color: rgb(51, 153, 255);&quot;&gt;&amp;nbsp; &amp;nbsp; CSLDumpFencesHW&lt;span style=&quot;color: rgb(180, 180, 180);&quot;&gt;,&lt;/span&gt;&lt;/font&gt;&lt;/span&gt;&lt;/div&gt;&lt;div style=&quot;&quot;&gt;&lt;span&gt;&lt;font style=&quot;color: rgb(51, 153, 255);&quot;&gt;&amp;nbsp; &amp;nbsp; CSLDumpSessionHW&lt;/font&gt;&lt;/span&gt;&lt;/div&gt;&lt;div style=&quot;&quot;&gt;&lt;span style=&quot;color: rgb(180, 180, 180);&quot;&gt;&lt;font style=&quot;color: rgb(51, 153, 255);&quot;&gt;};&lt;/font&gt;&lt;/span&gt;&lt;/div&gt;&lt;/div&gt;&lt;/div&gt;&lt;/div&gt;" style="text;strokeColor=none;fillColor=none;align=left;verticalAlign=middle;spacingLeft=4;spacingRight=4;overflow=hidden;points=[[0,0.5],[1,0.5]];portConstraint=eastwest;rotatable=0;whiteSpace=wrap;html=1;" vertex="1" parent="V9DL_0UD8Dr6rji1wSYd-118">
          <mxGeometry y="30" width="444" height="1173" as="geometry" />
        </mxCell>
        <mxCell id="V9DL_0UD8Dr6rji1wSYd-125" style="edgeStyle=orthogonalEdgeStyle;rounded=0;orthogonalLoop=1;jettySize=auto;html=1;entryX=0;entryY=0.25;entryDx=0;entryDy=0;" edge="1" parent="1" source="V9DL_0UD8Dr6rji1wSYd-104" target="V9DL_0UD8Dr6rji1wSYd-109">
          <mxGeometry relative="1" as="geometry" />
        </mxCell>
        <mxCell id="V9DL_0UD8Dr6rji1wSYd-127" value="&lt;div style=&quot;color: rgb(218, 218, 218); font-family: Consolas, &amp;quot;Courier New&amp;quot;, monospace; font-size: 16px; line-height: 22px; white-space: pre;&quot;&gt;&lt;div style=&quot;line-height: 22px;&quot;&gt;&lt;span&gt;&lt;span style=&quot;color: rgb(78, 201, 176);&quot;&gt;CamxResult&lt;/span&gt; &lt;span style=&quot;color: rgb(220, 220, 170);&quot;&gt;CSLInitializeHW&lt;/span&gt;&lt;span style=&quot;color: rgb(180, 180, 180);&quot;&gt;()&lt;/span&gt;&lt;/span&gt;&lt;/div&gt;&lt;/div&gt;" style="swimlane;fontStyle=0;childLayout=stackLayout;horizontal=1;startSize=30;horizontalStack=0;resizeParent=1;resizeParentMax=0;resizeLast=0;collapsible=1;marginBottom=0;whiteSpace=wrap;html=1;align=left;" vertex="1" parent="1">
          <mxGeometry x="2332" y="-65.99999999999999" width="783" height="120" as="geometry" />
        </mxCell>
        <mxCell id="V9DL_0UD8Dr6rji1wSYd-128" value="&lt;div style=&quot;color: rgb(218, 218, 218); font-family: Consolas, &amp;quot;Courier New&amp;quot;, monospace; font-size: 16px; line-height: 22px; white-space: pre;&quot;&gt;&lt;div style=&quot;line-height: 22px;&quot;&gt;&lt;span&gt;&lt;span style=&quot;color: rgb(220, 220, 170);&quot;&gt;    CSLHwEnumerateAndAddCSLHwDevice&lt;/span&gt;&lt;span style=&quot;color: rgb(180, 180, 180);&quot;&gt;(&lt;/span&gt;CSLInternalHwVideodevice&lt;span style=&quot;color: rgb(180, 180, 180);&quot;&gt;,&lt;/span&gt; CAM_VNODE_DEVICE_TYPE&lt;span style=&quot;color: rgb(180, 180, 180);&quot;&gt;)&lt;/span&gt;&lt;/span&gt;&lt;/div&gt;&lt;/div&gt;" style="text;strokeColor=none;fillColor=none;align=left;verticalAlign=middle;spacingLeft=4;spacingRight=4;overflow=hidden;points=[[0,0.5],[1,0.5]];portConstraint=eastwest;rotatable=0;whiteSpace=wrap;html=1;" vertex="1" parent="V9DL_0UD8Dr6rji1wSYd-127">
          <mxGeometry y="30" width="783" height="30" as="geometry" />
        </mxCell>
        <mxCell id="V9DL_0UD8Dr6rji1wSYd-139" value="&lt;div style=&quot;color: rgb(218, 218, 218); font-family: Consolas, &amp;quot;Courier New&amp;quot;, monospace; font-size: 16px; line-height: 22px; white-space: pre;&quot;&gt;&lt;span&gt;&lt;span style=&quot;color: rgb(220, 220, 170);&quot;&gt;    CSLHwEnumerateAndAddCSLHwDevice&lt;/span&gt;&lt;span style=&quot;color: rgb(180, 180, 180);&quot;&gt;(&lt;/span&gt;CSLInternalHwVideoSubdevice&lt;span style=&quot;color: rgb(180, 180, 180);&quot;&gt;,&lt;/span&gt; CAM_CPAS_DEVICE_TYPE&lt;span style=&quot;color: rgb(180, 180, 180);&quot;&gt;)&lt;/span&gt;&lt;/span&gt;&lt;/div&gt;" style="text;strokeColor=none;fillColor=none;align=left;verticalAlign=middle;spacingLeft=4;spacingRight=4;overflow=hidden;points=[[0,0.5],[1,0.5]];portConstraint=eastwest;rotatable=0;whiteSpace=wrap;html=1;" vertex="1" parent="V9DL_0UD8Dr6rji1wSYd-127">
          <mxGeometry y="60" width="783" height="30" as="geometry" />
        </mxCell>
        <mxCell id="V9DL_0UD8Dr6rji1wSYd-140" value="&lt;div style=&quot;color: rgb(218, 218, 218); font-family: Consolas, &amp;quot;Courier New&amp;quot;, monospace; font-size: 16px; line-height: 22px; white-space: pre;&quot;&gt;&lt;span&gt;&lt;span style=&quot;color: rgb(220, 220, 170);&quot;&gt;    CSLHwEnumerateAndAddCSLHwDevice&lt;/span&gt;&lt;span style=&quot;color: rgb(180, 180, 180);&quot;&gt;(&lt;/span&gt;CSLInternalHwVideoSubdeviceAll&lt;span style=&quot;color: rgb(180, 180, 180);&quot;&gt;,&lt;/span&gt; &lt;span style=&quot;color: rgb(181, 206, 168);&quot;&gt;0&lt;/span&gt;&lt;span style=&quot;color: rgb(180, 180, 180);&quot;&gt;)&lt;/span&gt;&lt;/span&gt;&lt;/div&gt;" style="text;strokeColor=none;fillColor=none;align=left;verticalAlign=middle;spacingLeft=4;spacingRight=4;overflow=hidden;points=[[0,0.5],[1,0.5]];portConstraint=eastwest;rotatable=0;whiteSpace=wrap;html=1;" vertex="1" parent="V9DL_0UD8Dr6rji1wSYd-127">
          <mxGeometry y="90" width="783" height="30" as="geometry" />
        </mxCell>
        <mxCell id="V9DL_0UD8Dr6rji1wSYd-132" style="edgeStyle=orthogonalEdgeStyle;rounded=0;orthogonalLoop=1;jettySize=auto;html=1;entryX=0.5;entryY=0;entryDx=0;entryDy=0;" edge="1" parent="1" source="V9DL_0UD8Dr6rji1wSYd-106" target="V9DL_0UD8Dr6rji1wSYd-127">
          <mxGeometry relative="1" as="geometry">
            <Array as="points">
              <mxPoint x="3135" y="-180" />
              <mxPoint x="3135" y="-127.99999999999999" />
              <mxPoint x="2724" y="-127.99999999999999" />
            </Array>
          </mxGeometry>
        </mxCell>
        <mxCell id="V9DL_0UD8Dr6rji1wSYd-134" style="edgeStyle=orthogonalEdgeStyle;rounded=0;orthogonalLoop=1;jettySize=auto;html=1;entryX=-0.001;entryY=0.016;entryDx=0;entryDy=0;entryPerimeter=0;" edge="1" parent="1" source="V9DL_0UD8Dr6rji1wSYd-114" target="V9DL_0UD8Dr6rji1wSYd-118">
          <mxGeometry relative="1" as="geometry" />
        </mxCell>
        <mxCell id="V9DL_0UD8Dr6rji1wSYd-141" style="edgeStyle=orthogonalEdgeStyle;rounded=0;orthogonalLoop=1;jettySize=auto;html=1;" edge="1" parent="1" source="V9DL_0UD8Dr6rji1wSYd-79" target="V9DL_0UD8Dr6rji1wSYd-103">
          <mxGeometry relative="1" as="geometry" />
        </mxCell>
        <mxCell id="V9DL_0UD8Dr6rji1wSYd-142" value="&lt;div style=&quot;color: rgb(218, 218, 218); font-family: Consolas, &amp;quot;Courier New&amp;quot;, monospace; font-size: 16px; line-height: 22px; white-space: pre;&quot;&gt;&lt;span&gt;&lt;span style=&quot;color: rgb(78, 201, 176);&quot;&gt;HwEnvironment&lt;/span&gt;&lt;span style=&quot;color: rgb(180, 180, 180);&quot;&gt;*&lt;/span&gt; &lt;span style=&quot;color: rgb(78, 201, 176);&quot;&gt;HwEnvironment&lt;/span&gt;&lt;span style=&quot;color: rgb(180, 180, 180);&quot;&gt;::&lt;/span&gt;&lt;span style=&quot;color: rgb(220, 220, 170);&quot;&gt;GetInstance&lt;/span&gt;&lt;span style=&quot;color: rgb(180, 180, 180);&quot;&gt;()&lt;/span&gt;&lt;/span&gt;&lt;/div&gt;" style="swimlane;fontStyle=0;childLayout=stackLayout;horizontal=1;startSize=30;horizontalStack=0;resizeParent=1;resizeParentMax=0;resizeLast=0;collapsible=1;marginBottom=0;whiteSpace=wrap;html=1;align=left;" vertex="1" parent="1">
          <mxGeometry x="993" y="-272" width="505" height="120" as="geometry" />
        </mxCell>
        <mxCell id="V9DL_0UD8Dr6rji1wSYd-143" value="&lt;div style=&quot;color: rgb(218, 218, 218); font-family: Consolas, &amp;quot;Courier New&amp;quot;, monospace; font-size: 16px; line-height: 22px; white-space: pre;&quot;&gt;&lt;span&gt;&lt;span style=&quot;color: rgb(86, 156, 214);&quot;&gt;    static&lt;/span&gt; &lt;span style=&quot;color: rgb(78, 201, 176);&quot;&gt;HwEnvironment&lt;/span&gt; &lt;span style=&quot;color: rgb(156, 220, 254);&quot;&gt;s_HwEnvironmentSingleton&lt;/span&gt;&lt;span style=&quot;color: rgb(180, 180, 180);&quot;&gt;;&lt;/span&gt;&lt;/span&gt;&lt;/div&gt;" style="text;strokeColor=none;fillColor=none;align=left;verticalAlign=middle;spacingLeft=4;spacingRight=4;overflow=hidden;points=[[0,0.5],[1,0.5]];portConstraint=eastwest;rotatable=0;whiteSpace=wrap;html=1;" vertex="1" parent="V9DL_0UD8Dr6rji1wSYd-142">
          <mxGeometry y="30" width="505" height="30" as="geometry" />
        </mxCell>
        <mxCell id="V9DL_0UD8Dr6rji1wSYd-144" value="&lt;div style=&quot;color: rgb(218, 218, 218); font-family: Consolas, &amp;quot;Courier New&amp;quot;, monospace; font-size: 16px; line-height: 22px; white-space: pre;&quot;&gt;&lt;span&gt;&lt;span style=&quot;color: rgb(156, 220, 254);&quot;&gt;    s_HwEnvironmentSingleton&lt;/span&gt;&lt;span style=&quot;color: rgb(180, 180, 180);&quot;&gt;.&lt;/span&gt;&lt;span style=&quot;color: rgb(220, 220, 170);&quot;&gt;InitCaps&lt;/span&gt;&lt;span style=&quot;color: rgb(180, 180, 180);&quot;&gt;();&lt;/span&gt;&lt;/span&gt;&lt;/div&gt;" style="text;strokeColor=none;fillColor=none;align=left;verticalAlign=middle;spacingLeft=4;spacingRight=4;overflow=hidden;points=[[0,0.5],[1,0.5]];portConstraint=eastwest;rotatable=0;whiteSpace=wrap;html=1;" vertex="1" parent="V9DL_0UD8Dr6rji1wSYd-142">
          <mxGeometry y="60" width="505" height="30" as="geometry" />
        </mxCell>
        <mxCell id="V9DL_0UD8Dr6rji1wSYd-145" value="&lt;div style=&quot;color: rgb(218, 218, 218); font-family: Consolas, &amp;quot;Courier New&amp;quot;, monospace; font-size: 16px; line-height: 22px; white-space: pre;&quot;&gt;&lt;span&gt;&lt;span style=&quot;color: rgb(216, 160, 223);&quot;&gt;    return&lt;/span&gt; &lt;span style=&quot;color: rgb(180, 180, 180);&quot;&gt;&amp;amp;&lt;/span&gt;&lt;span style=&quot;color: rgb(156, 220, 254);&quot;&gt;s_HwEnvironmentSingleton&lt;/span&gt;&lt;span style=&quot;color: rgb(180, 180, 180);&quot;&gt;;&lt;/span&gt;&lt;/span&gt;&lt;/div&gt;" style="text;strokeColor=none;fillColor=none;align=left;verticalAlign=middle;spacingLeft=4;spacingRight=4;overflow=hidden;points=[[0,0.5],[1,0.5]];portConstraint=eastwest;rotatable=0;whiteSpace=wrap;html=1;" vertex="1" parent="V9DL_0UD8Dr6rji1wSYd-142">
          <mxGeometry y="90" width="505" height="30" as="geometry" />
        </mxCell>
        <mxCell id="V9DL_0UD8Dr6rji1wSYd-146" style="edgeStyle=orthogonalEdgeStyle;rounded=0;orthogonalLoop=1;jettySize=auto;html=1;entryX=0;entryY=0.25;entryDx=0;entryDy=0;" edge="1" parent="1" source="V9DL_0UD8Dr6rji1wSYd-143" target="V9DL_0UD8Dr6rji1wSYd-71">
          <mxGeometry relative="1" as="geometry" />
        </mxCell>
        <mxCell id="V9DL_0UD8Dr6rji1wSYd-147" value="&lt;div style=&quot;color: rgb(218, 218, 218); font-family: Consolas, &amp;quot;Courier New&amp;quot;, monospace; font-size: 16px; line-height: 22px; white-space: pre;&quot;&gt;&lt;span&gt;&lt;span style=&quot;color: rgb(78, 201, 176);&quot;&gt;VOID&lt;/span&gt; &lt;span style=&quot;color: rgb(78, 201, 176);&quot;&gt;HwEnvironment&lt;/span&gt;&lt;span style=&quot;color: rgb(180, 180, 180);&quot;&gt;::&lt;/span&gt;&lt;span style=&quot;color: rgb(220, 220, 170);&quot;&gt;InitCaps&lt;/span&gt;&lt;span style=&quot;color: rgb(180, 180, 180);&quot;&gt;()&lt;/span&gt;&lt;/span&gt;&lt;/div&gt;" style="swimlane;fontStyle=0;childLayout=stackLayout;horizontal=1;startSize=30;horizontalStack=0;resizeParent=1;resizeParentMax=0;resizeLast=0;collapsible=1;marginBottom=0;whiteSpace=wrap;html=1;align=left;" vertex="1" parent="1">
          <mxGeometry x="993" y="-74" width="573" height="182" as="geometry" />
        </mxCell>
        <mxCell id="V9DL_0UD8Dr6rji1wSYd-148" value="&lt;div style=&quot;font-family: Consolas, &amp;quot;Courier New&amp;quot;, monospace; font-size: 16px; line-height: 22px; white-space: pre; color: rgb(218, 218, 218);&quot;&gt;&lt;div style=&quot;color: light-dark(rgb(218, 218, 218), rgb(50, 50, 50));&quot;&gt;&lt;span&gt;&lt;span style=&quot;color: rgb(220, 220, 170);&quot;&gt;    EnumerateDevices&lt;/span&gt;&lt;span style=&quot;color: rgb(180, 180, 180);&quot;&gt;();&lt;/span&gt;&lt;/span&gt;&lt;/div&gt;&lt;div style=&quot;color: light-dark(rgb(218, 218, 218), rgb(50, 50, 50));&quot;&gt;&lt;span&gt;&lt;span style=&quot;color: rgb(220, 220, 170);&quot;&gt;    &lt;/span&gt;&lt;/span&gt;&lt;/div&gt;&lt;div style=&quot;color: light-dark(rgb(218, 218, 218), rgb(50, 50, 50));&quot;&gt;&lt;span style=&quot;background-color: transparent; color: rgb(220, 220, 170);&quot;&gt;    &lt;/span&gt;&lt;/div&gt;&lt;div style=&quot;color: light-dark(rgb(218, 218, 218), rgb(50, 50, 50));&quot;&gt;&lt;span&gt;&lt;span style=&quot;color: rgb(220, 220, 170);&quot;&gt;    &lt;/span&gt;&lt;/span&gt;&lt;/div&gt;&lt;div style=&quot;&quot;&gt;&lt;span style=&quot;color: rgb(220, 220, 170);&quot;&gt;&lt;font color=&quot;#dadada&quot;&gt;    &lt;/font&gt;&lt;/span&gt;&lt;/div&gt;&lt;/div&gt;" style="text;strokeColor=none;fillColor=none;align=left;verticalAlign=middle;spacingLeft=4;spacingRight=4;overflow=hidden;points=[[0,0.5],[1,0.5]];portConstraint=eastwest;rotatable=0;whiteSpace=wrap;html=1;" vertex="1" parent="V9DL_0UD8Dr6rji1wSYd-147">
          <mxGeometry y="30" width="573" height="32" as="geometry" />
        </mxCell>
        <mxCell id="V9DL_0UD8Dr6rji1wSYd-155" value="&lt;span style=&quot;font-family: Consolas, &amp;quot;Courier New&amp;quot;, monospace; font-size: 16px; white-space: pre; color: rgb(220, 220, 170);&quot;&gt;    ProbeImageSensorModules&lt;/span&gt;&lt;span style=&quot;font-family: Consolas, &amp;quot;Courier New&amp;quot;, monospace; font-size: 16px; white-space: pre; color: rgb(180, 180, 180);&quot;&gt;();&lt;/span&gt;" style="text;strokeColor=none;fillColor=none;align=left;verticalAlign=middle;spacingLeft=4;spacingRight=4;overflow=hidden;points=[[0,0.5],[1,0.5]];portConstraint=eastwest;rotatable=0;whiteSpace=wrap;html=1;" vertex="1" parent="V9DL_0UD8Dr6rji1wSYd-147">
          <mxGeometry y="62" width="573" height="30" as="geometry" />
        </mxCell>
        <mxCell id="V9DL_0UD8Dr6rji1wSYd-154" value="&lt;span style=&quot;background-color: transparent; color: rgb(220, 220, 170);&quot;&gt;&lt;/span&gt;&lt;span style=&quot;font-family: Consolas, &amp;quot;Courier New&amp;quot;, monospace; font-size: 16px; white-space: pre; background-color: transparent; color: rgb(220, 220, 170);&quot;&gt;    EnumerateSensorDevices&lt;/span&gt;&lt;span style=&quot;font-family: Consolas, &amp;quot;Courier New&amp;quot;, monospace; font-size: 16px; white-space: pre; background-color: transparent; color: rgb(180, 180, 180);&quot;&gt;();&lt;/span&gt;" style="text;strokeColor=none;fillColor=none;align=left;verticalAlign=middle;spacingLeft=4;spacingRight=4;overflow=hidden;points=[[0,0.5],[1,0.5]];portConstraint=eastwest;rotatable=0;whiteSpace=wrap;html=1;" vertex="1" parent="V9DL_0UD8Dr6rji1wSYd-147">
          <mxGeometry y="92" width="573" height="30" as="geometry" />
        </mxCell>
        <mxCell id="V9DL_0UD8Dr6rji1wSYd-153" value="&lt;span style=&quot;font-family: Consolas, &amp;quot;Courier New&amp;quot;, monospace; font-size: 16px; white-space: pre; color: rgb(220, 220, 170);&quot;&gt;    InitializeSensorSubModules&lt;/span&gt;&lt;span style=&quot;font-family: Consolas, &amp;quot;Courier New&amp;quot;, monospace; font-size: 16px; white-space: pre; color: rgb(180, 180, 180);&quot;&gt;();&lt;/span&gt;" style="text;strokeColor=none;fillColor=none;align=left;verticalAlign=middle;spacingLeft=4;spacingRight=4;overflow=hidden;points=[[0,0.5],[1,0.5]];portConstraint=eastwest;rotatable=0;whiteSpace=wrap;html=1;" vertex="1" parent="V9DL_0UD8Dr6rji1wSYd-147">
          <mxGeometry y="122" width="573" height="30" as="geometry" />
        </mxCell>
        <mxCell id="V9DL_0UD8Dr6rji1wSYd-152" value="&lt;span style=&quot;color: rgb(220, 220, 170);&quot;&gt;&lt;/span&gt;&lt;span style=&quot;font-family: Consolas, &amp;quot;Courier New&amp;quot;, monospace; font-size: 16px; white-space: pre; color: rgb(220, 220, 170);&quot;&gt;    InitializeSensorStaticCaps&lt;/span&gt;&lt;span style=&quot;font-family: Consolas, &amp;quot;Courier New&amp;quot;, monospace; font-size: 16px; white-space: pre; color: rgb(180, 180, 180);&quot;&gt;();&lt;/span&gt;" style="text;strokeColor=none;fillColor=none;align=left;verticalAlign=middle;spacingLeft=4;spacingRight=4;overflow=hidden;points=[[0,0.5],[1,0.5]];portConstraint=eastwest;rotatable=0;whiteSpace=wrap;html=1;" vertex="1" parent="V9DL_0UD8Dr6rji1wSYd-147">
          <mxGeometry y="152" width="573" height="30" as="geometry" />
        </mxCell>
        <mxCell id="V9DL_0UD8Dr6rji1wSYd-150" value="Item 3" style="text;strokeColor=none;fillColor=none;align=left;verticalAlign=middle;spacingLeft=4;spacingRight=4;overflow=hidden;points=[[0,0.5],[1,0.5]];portConstraint=eastwest;rotatable=0;whiteSpace=wrap;html=1;" vertex="1" parent="V9DL_0UD8Dr6rji1wSYd-147">
          <mxGeometry y="182" width="573" as="geometry" />
        </mxCell>
        <mxCell id="V9DL_0UD8Dr6rji1wSYd-151" style="edgeStyle=orthogonalEdgeStyle;rounded=0;orthogonalLoop=1;jettySize=auto;html=1;entryX=0.5;entryY=0;entryDx=0;entryDy=0;" edge="1" parent="1" source="V9DL_0UD8Dr6rji1wSYd-144" target="V9DL_0UD8Dr6rji1wSYd-147">
          <mxGeometry relative="1" as="geometry" />
        </mxCell>
        <mxCell id="V9DL_0UD8Dr6rji1wSYd-156" value="&lt;div style=&quot;color: rgb(218, 218, 218); font-family: Consolas, &amp;quot;Courier New&amp;quot;, monospace; font-size: 16px; line-height: 22px; white-space: pre;&quot;&gt;&lt;span&gt;&lt;span style=&quot;color: rgb(78, 201, 176);&quot;&gt;VOID&lt;/span&gt; &lt;span style=&quot;color: rgb(78, 201, 176);&quot;&gt;HwEnvironment&lt;/span&gt;&lt;span style=&quot;color: rgb(180, 180, 180);&quot;&gt;::&lt;/span&gt;&lt;span style=&quot;color: rgb(220, 220, 170);&quot;&gt;ProbeImageSensorModules&lt;/span&gt;&lt;span style=&quot;color: rgb(180, 180, 180);&quot;&gt;()&lt;/span&gt;&lt;/span&gt;&lt;/div&gt;" style="swimlane;fontStyle=0;childLayout=stackLayout;horizontal=1;startSize=30;horizontalStack=0;resizeParent=1;resizeParentMax=0;resizeLast=0;collapsible=1;marginBottom=0;whiteSpace=wrap;html=1;align=left;" vertex="1" parent="1">
          <mxGeometry x="1733" y="193" width="589" height="120" as="geometry" />
        </mxCell>
        <mxCell id="V9DL_0UD8Dr6rji1wSYd-157" value="Item 1" style="text;strokeColor=none;fillColor=none;align=left;verticalAlign=middle;spacingLeft=4;spacingRight=4;overflow=hidden;points=[[0,0.5],[1,0.5]];portConstraint=eastwest;rotatable=0;whiteSpace=wrap;html=1;" vertex="1" parent="V9DL_0UD8Dr6rji1wSYd-156">
          <mxGeometry y="30" width="589" height="30" as="geometry" />
        </mxCell>
        <mxCell id="V9DL_0UD8Dr6rji1wSYd-158" value="Item 2" style="text;strokeColor=none;fillColor=none;align=left;verticalAlign=middle;spacingLeft=4;spacingRight=4;overflow=hidden;points=[[0,0.5],[1,0.5]];portConstraint=eastwest;rotatable=0;whiteSpace=wrap;html=1;" vertex="1" parent="V9DL_0UD8Dr6rji1wSYd-156">
          <mxGeometry y="60" width="589" height="30" as="geometry" />
        </mxCell>
        <mxCell id="V9DL_0UD8Dr6rji1wSYd-159" value="Item 3" style="text;strokeColor=none;fillColor=none;align=left;verticalAlign=middle;spacingLeft=4;spacingRight=4;overflow=hidden;points=[[0,0.5],[1,0.5]];portConstraint=eastwest;rotatable=0;whiteSpace=wrap;html=1;" vertex="1" parent="V9DL_0UD8Dr6rji1wSYd-156">
          <mxGeometry y="90" width="589" height="30" as="geometry" />
        </mxCell>
        <mxCell id="V9DL_0UD8Dr6rji1wSYd-161" style="edgeStyle=orthogonalEdgeStyle;rounded=0;orthogonalLoop=1;jettySize=auto;html=1;" edge="1" parent="1" source="V9DL_0UD8Dr6rji1wSYd-155" target="V9DL_0UD8Dr6rji1wSYd-156">
          <mxGeometry relative="1" as="geometry" />
        </mxCell>
      </root>
    </mxGraphModel>
  </diagram>
</mxfile>
